<?xml version="1.0" standalone="no"?>
<!DOCTYPE svg PUBLIC "-//W3C//DTD SVG 1.1//EN" "http://www.w3.org/Graphics/SVG/1.1/DTD/svg11.dtd" >
<svg xmlns="http://www.w3.org/2000/svg" xmlns:xlink="http://www.w3.org/1999/xlink" version="1.1">
<metadata>
Created by FontForge 20200427 at Wed Jan  9 03:33:04 2013
 By www
Copyright (c) 2013 by Nate Piekos. Blambot.com. All rights reserved.
</metadata>
<defs>
<font id="BlowholeBB" horiz-adv-x="412" >
  <font-face 
    font-family="Blowhole BB"
    font-weight="400"
    font-stretch="normal"
    units-per-em="1000"
    panose-1="2 0 5 6 0 0 0 2 0 4"
    ascent="750"
    descent="-250"
    x-height="631"
    cap-height="612"
    bbox="4.94118 -173 637 786.722"
    underline-thickness="50"
    underline-position="-100"
    unicode-range="U+000D-2122"
  />
<missing-glyph horiz-adv-x="617" 
d="M52 701h511v-701h-511v701zM188 63h236v576h-236v-576z" />
    <glyph glyph-name="registered" unicode="&#x28;R&#x29;" horiz-adv-x="608" 
d="M371 257q15 -13 25 -28q5 -8 7 -17.5t-1 -17.5q-2 -8 -9.5 -17.5t-20.5 -6.5q-8 2 -14.5 8.5l-11.5 11.5q-8 5 -14.5 11t-14.5 11q-2 1 -6.5 3.5t-9.5 5t-9.5 4t-6.5 0.5q-5 -4 -5 -10.5v-13.5q1 -15 2.5 -25.5t-0.5 -25.5q-2 -17 -17.5 -21.5t-28.5 5.5q-8 6 -11 15.5
t-5 19.5q-2 13 -2.5 30.5t-0.5 54.5q2 23 0.5 45.5t-3.5 45.5q-1 4 -1.5 9t-1.5 9q-2 12 -1.5 28t8.5 27q6 9 17 15q8 5 14.5 7.5t14.5 7.5q9 4 18 6.5t18 4.5q12 3 23 2.5t22 -2.5q25 -6 35.5 -24t10.5 -40q0 -35 -19 -62q-7 -10 -14 -19t-16 -18q-5 -9 7 -18
q6 -5 11.5 -10.5zM318 367q4 8 6 18.5t-6 15.5q-7 4 -18.5 -0.5t-15.5 -12.5t-3.5 -14.5t-0.5 -14.5q-2 -17 0 -33q1 -6 4.5 -4.5t7.5 5.5q9 9 14.5 19t11.5 21zM547 519q20 -30 27.5 -69.5t7.5 -81.5q0 -31 -3 -61q-7 -66 -38.5 -129t-78.5 -106q-42 -38 -90.5 -59.5
t-100.5 -21.5q-11 0 -20.5 1t-20.5 3q-59 11 -102 43.5t-68 92.5q-29 69 -29 142t30 139q14 31 41.5 70t60.5 66q17 13 34 24t36 19q23 10 54.5 18.5t55.5 10.5q8 1 15.5 1h15.5q14 0 27.5 -1t24.5 -6q35 -13 67 -37t54 -58zM483 303q2 15 3.5 29.5t1.5 28.5q0 37 -10.5 69
t-35.5 59q-11 12 -26 21t-32 14.5t-34 6.5t-32 -2q-39 -9 -75 -34.5t-63.5 -62.5t-42.5 -84t-10 -100q4 -42 15.5 -77.5t38.5 -59.5q19 -17 41.5 -24t45.5 -7q18 0 36 3q35 5 64.5 23.5t53 47.5t39 67t22.5 82z" />
    <glyph glyph-name="copyright" unicode="&#x28;c&#x29;" horiz-adv-x="605" 
d="M543 519q20 -30 28 -69.5t8 -80.5q0 -16 -1 -31.5t-3 -30.5q-7 -66 -38 -129t-78 -106q-42 -38 -91 -59.5t-101 -21.5q-11 0 -20.5 1t-20.5 3q-59 11 -102 43.5t-68 92.5q-14 33 -21 69t-7 72t7 71.5t22 68.5q14 31 41.5 70t60.5 66q35 27 70 43q23 10 54.5 18.5
t55.5 10.5q8 1 15.5 1h15.5q14 0 27.5 -1t24.5 -6q35 -13 67 -37t54 -58zM479 303q2 15 3.5 29.5t1.5 28.5q0 37 -10 69t-35 59q-11 12 -26.5 21t-32.5 14.5t-34 6.5t-32 -2q-39 -9 -75 -34.5t-63.5 -62.5t-42 -84t-9.5 -100q3 -42 14.5 -77.5t38.5 -59.5q20 -17 42 -24
t45 -7q18 0 36 3q35 5 65 23.5t53.5 47.5t39 67t21.5 82zM396 201q-10 -22 -26.5 -40t-38.5 -26q-18 -7 -39.5 -4.5t-36.5 11.5q-19 11 -30.5 31t-17.5 41q-6 25 -6 54q0 37 9 69q10 32 24 59t37 52q14 14 34.5 27.5t40.5 13.5q19 0 32 -14q9 -11 11 -21.5t2 -24.5
q0 -12 -0.5 -24t-0.5 -23q0 -21 1 -28t-1 -12t-5 -8t-7 -5q-16 -7 -30.5 0t-19.5 24q-2 7 -1.5 14.5t0.5 15.5t-2.5 14t-11.5 -3q-10 -10 -17.5 -24t-12.5 -29.5t-7.5 -31.5t-2.5 -29q0 -24 10 -43q13 -24 30 -24q15 0 27 16q4 5 8.5 10.5t9.5 9.5t11.5 5.5t16.5 -1.5
q8 -3 12 -8.5t4.5 -13t-1.5 -15.5t-5 -15z" />
    <glyph glyph-name=".notdef" horiz-adv-x="617" 
d="M52 701h511v-701h-511v701zM188 63h236v576h-236v-576z" />
    <glyph glyph-name="NULL" horiz-adv-x="0" 
 />
    <glyph glyph-name="NULL" horiz-adv-x="0" 
 />
    <glyph glyph-name="nonmarkingreturn" unicode="&#xd;" horiz-adv-x="204" 
 />
    <glyph glyph-name="space" unicode=" " horiz-adv-x="204" 
 />
    <glyph glyph-name="five" unicode="5" horiz-adv-x="406" 
d="M83 600q46 9 93 22t94 11q8 -1 16.5 -1t16.5 -3q16 -6 25 -17t17 -26q6 -14 9 -30t-5 -30q-5 -10 -14 -18.5t-19 -13.5q-12 -7 -25 -4.5t-26 4.5l-26 2t-26 -1q-11 -2 -24 -4.5t-22 -10.5q-10 -9 -12 -22t-2 -27t1 -22t4 -20q2 -8 6.5 -10t10.5 -1.5t12.5 3t12.5 3.5
q20 5 37 5q32 0 62.5 -13t52.5 -39q21 -23 30.5 -54t9.5 -64q0 -52 -21 -102t-57 -80q-32 -26 -72 -41.5t-82 -15.5q-30 0 -58 9q-20 7 -38.5 17.5t-25.5 33.5q-7 25 5.5 45.5t35.5 25.5q11 2 22 2.5t22 0.5q15 0 32 2t33.5 7t31 13.5t24.5 20.5q11 14 17 28.5t2 33.5
q-3 14 -13.5 26t-24.5 17q-15 4 -29.5 2t-28 -8t-26.5 -14t-26 -14q-12 -6 -24.5 -6t-23.5 4.5t-19 14t-11 24.5q-3 16 0 32t3 32q0 11 0.5 23t0.5 23q0 9 -0.5 17.5t-1.5 17.5q-3 37 -13 71q-5 14 -8.5 27.5t-2.5 27.5q1 12 6 26t13 22q11 9 23.5 11.5t25.5 4.5z" />
    <glyph glyph-name="six" unicode="6" horiz-adv-x="431" 
d="M410 240q5 -49 -8.5 -100.5t-47.5 -90.5q-20 -24 -49 -39.5t-58 -22.5q-25 -6 -51 -3t-52 11q-32 9 -54 31t-36.5 50.5t-21.5 61.5t-8 64q-1 41 1 79.5t12 79.5q8 30 18.5 59.5t26.5 57.5q14 23 31.5 44t36.5 40q14 14 32 27t36 21q25 11 49 17t47 1q26 -5 41.5 -24.5
t13.5 -43.5q-1 -14 -8 -30t-20 -24q-10 -5 -21 -5t-21 -1q-23 -2 -43.5 -15t-37 -32.5t-29 -42t-18.5 -42.5q-4 -13 -3 -21.5t3 -13.5q5 -10 15.5 -5t23.5 14q28 20 58 23.5t54 0.5q22 -3 38 -15t26.5 -29.5t16 -39t7.5 -42.5zM254 120q16 6 25 25t9 39q0 19 -9 33
q-11 16 -21.5 14.5t-27.5 -7.5q-7 -3 -13 -7.5t-14 -9.5q-7 -5 -11.5 -8.5t-10.5 -11.5t-7.5 -12.5t1.5 -16.5q2 -8 7.5 -15.5t11.5 -12.5q13 -11 29 -13.5t31 3.5z" />
    <glyph glyph-name="seven" unicode="7" horiz-adv-x="399" 
d="M252 616q20 6 39.5 11t39.5 7q16 1 29 -3.5t22.5 -13.5t13.5 -22t2 -27q-5 -30 -17 -57.5t-25 -55.5q-19 -42 -34 -80t-28 -82q-7 -23 -14.5 -48t-10.5 -49q-3 -20 -7.5 -38.5t-6.5 -37.5l-4 -34t-3 -34q-1 -13 -2.5 -27t-8.5 -25t-25 -16.5t-30 -4.5q-16 1 -28 9t-22 19
t-14 21.5t-4 25.5q0 14 2 27t5 26q16 72 31 138t38 137q4 12 9.5 27t8.5 27.5t1 21t-13 8.5q-10 0 -24.5 -5.5t-29 -13.5t-28 -16t-20.5 -14q-11 -9 -24 -14.5t-28 -0.5q-22 8 -30 25t-6.5 36.5t11 37.5t23.5 29t32 20.5t35 17.5q37 15 72.5 26t72.5 22z" />
    <glyph glyph-name="eight" unicode="8" horiz-adv-x="460" 
d="M393 318q29 -26 41 -52t10 -64q0 -15 -2.5 -28t-7.5 -28q-13 -42 -40 -77.5t-65 -54.5q-29 -14 -67.5 -25.5t-77.5 -11.5q-30 0 -57.5 8.5t-47.5 29.5q-24 23 -38.5 51.5t-14.5 61.5q0 23 8.5 48.5t28.5 51.5q9 11 21 26t14 29q2 17 -7 23t-20 15q-26 23 -36 49.5
t-11 58.5q-2 72 44 124.5t143 77.5q11 3 21 4t21 1q25 0 50 -7.5t45 -22t34 -35t19 -46.5t0 -48.5t-16 -45.5q-8 -15 -16.5 -30.5t-9.5 -32.5t10.5 -28t23.5 -22zM159 453q-3 -11 0.5 -19.5t10.5 -14.5t15 -9t14 -4q14 -2 27.5 10t22 28.5t10.5 33.5t-7 24q-12 11 -30 6
t-30 -12q-25 -13 -33 -43zM300 169q13 32 -19 55q-10 7 -23.5 10.5t-25.5 0.5q-11 -3 -20.5 -14t-17.5 -19q-11 -11 -18.5 -24t-7.5 -27q0 -21 22 -33q13 -8 30 -5t33 11.5t29 20.5t18 24z" />
    <glyph glyph-name="nine" unicode="9" horiz-adv-x="422" 
d="M18 373q-5 50 8.5 101.5t46.5 90.5q24 28 61.5 46.5t78.5 18.5q18 0 35.5 -3t34.5 -8q32 -9 54.5 -31t37 -51t21.5 -62t8 -64q1 -40 -1 -79t-12 -79q-8 -31 -18.5 -60t-27.5 -57q-13 -23 -30.5 -44.5t-36.5 -39.5q-14 -14 -32 -27t-36 -21q-25 -11 -49 -17.5t-48 -1.5
q-25 5 -41 24.5t-14 44.5q2 14 8.5 30t20.5 24q9 5 20.5 4.5t21.5 0.5q23 3 43 16t36.5 32t29 41t19.5 43q3 14 2.5 22.5t-2.5 13.5q-5 10 -16 5t-23 -14q-28 -20 -58 -24t-55 0q-22 3 -37.5 14.5t-26 29t-16 39t-7.5 42.5zM174 493q-16 -6 -25 -24.5t-9 -38.5t9 -33
q10 -15 29 -13t37 12.5t30 27t8 31.5q-2 8 -7.5 16t-11.5 13q-13 11 -29 13t-31 -4z" />
    <glyph glyph-name="plus" unicode="+" horiz-adv-x="369" 
d="M311 273q-6 -2 -14 -2.5t-16.5 -2t-15.5 -4.5t-11 -9q-7 -11 -2 -22.5t7 -22.5q2 -14 1.5 -24.5t-8.5 -23.5q-10 -14 -25 -22.5t-31 -6.5t-29 8.5t-18 22.5q-5 13 -5.5 21.5t-3.5 22.5q-3 15 -8.5 20.5t-21.5 0.5q-13 -4 -25 -10t-26 -5q-20 2 -28 17.5t-8 35.5
q0 14 3.5 26.5t8.5 20.5q7 11 22 17t29.5 10.5t25.5 10t12 15.5q0 4 -1 11.5t-2.5 16t-2 17t0.5 15.5q4 17 11.5 27.5t24.5 18.5q12 5 28 7.5t28 -3.5q15 -7 17 -16.5t3 -24.5q0 -10 1 -26.5t10 -20.5q8 -3 24 2t27 4q13 -1 24.5 -9t19 -19.5t10 -25.5t-0.5 -27
q-4 -14 -12.5 -25t-22.5 -16z" />
    <glyph glyph-name="hyphen" unicode="-" horiz-adv-x="281" 
d="M206 271q-27 -10 -51.5 -21.5t-50.5 -24.5q-20 -11 -40 -11q-12 0 -22.5 6.5t-16.5 22.5q-8 18 -4 34.5t14.5 30.5t25.5 25.5t29 20.5q10 6 24.5 14t31 15t33.5 12t32 5t27 -5.5t20 -19.5q5 -9 6.5 -20.5t-0.5 -23.5t-7 -22.5t-12 -17.5q-8 -8 -18 -12t-21 -8z" />
    <glyph glyph-name="equal" unicode="=" horiz-adv-x="291" 
d="M24 337q-8 18 -4 34.5t14.5 30.5t25.5 25.5t29 20.5q10 6 24 13.5t30.5 14.5t34 12t32.5 5q14 0 26 -5t20 -19q6 -11 6 -28q0 -16 -5 -32t-13 -25q-8 -8 -18.5 -12t-20.5 -8q-28 -10 -52 -21t-50 -24q-22 -11 -40 -11q-12 0 -22.5 6.5t-16.5 22.5zM277 248q-1 7 -4 17
t-8 19.5t-11.5 16.5t-14.5 10q-20 7 -43.5 -0.5t-41.5 -13.5q-24 -9 -45.5 -24t-42.5 -29q-17 -12 -30.5 -27t-12.5 -38q0 -7 2 -16.5t6.5 -19t11 -16t14.5 -7.5q21 -2 41.5 10t38.5 22q26 15 56 24q12 4 27.5 9.5t28.5 13.5t21.5 20t6.5 29z" />
    <glyph glyph-name="a" unicode="a" horiz-adv-x="417" 
d="M371 433q15 -67 23 -146.5t8 -151.5q0 -29 -9.5 -55t-41.5 -40q-9 -4 -20 -6.5t-22 -2.5q-21 0 -33 11q-6 5 -8 15t-2 23q0 8 0.5 26t0.5 26q0 11 -1 20.5t-5 15.5q-4 7 -16.5 5t-20.5 -4q-14 -2 -32 -10.5t-28 -17.5t-10 -30q0 -17 3.5 -36.5t3.5 -38.5q0 -15 -4 -27.5
t-16 -20.5q-13 -9 -26 -13t-25 -4q-25 0 -44 15.5t-25 44.5q-2 11 -3 23.5t-1 26.5q0 21 1.5 42t3.5 39q2 34 6 66.5t10 65.5q8 48 23.5 97.5t32.5 95.5q13 37 31 69t50 58q17 13 34 21t39 7q23 -1 36 -12t24 -28q23 -36 38.5 -82t24.5 -87zM240 318q3 3 4 16.5t0 30.5
t-3.5 34.5t-4.5 28.5q-4 14 -12.5 17.5t-16.5 -17.5q-7 -18 -12.5 -33t-9.5 -34q-1 -6 -4 -17t-4.5 -22t0 -19t7.5 -8q5 0 25 6.5t31 16.5z" />
    <glyph glyph-name="b" unicode="b" horiz-adv-x="422" 
d="M411 249q4 -16 4 -36q0 -51 -31 -101q-25 -42 -66 -74.5t-88 -44.5q-22 -5 -46.5 -9t-48.5 -4q-15 0 -33 3t-34 10.5t-27.5 20t-14.5 31.5q-2 12 -3 22.5t-1 20.5q0 35 4.5 72t9.5 75q1 26 2 43.5t0 39.5t-4 43l-6 42q-2 11 -3 22.5t-1 22.5q0 30 10 59.5t38 54.5
q18 15 39.5 28.5t45.5 23t48.5 15t47.5 5.5q26 0 47.5 -7.5t37.5 -23.5q32 -32 32 -81q0 -15 -3.5 -30.5t-8.5 -30.5q-7 -17 -14 -33t-16 -33q-3 -7 -7.5 -14t-6.5 -13q-2 -8 0.5 -11t8.5 -6q13 -6 23 -12.5t21 -16.5q18 -17 28.5 -34t15.5 -39zM160 444q-2 -17 -1 -32.5
t2 -32.5q1 -9 6.5 -14t14.5 6q11 12 18 26t15 28q4 8 8 21t4 25t-6.5 18.5t-23.5 -0.5q-17 -6 -26 -18.5t-11 -26.5zM267 165q11 15 11 33q0 22 -15 37q-11 12 -30 12q-23 0 -46 -15q-10 -6 -15 -15.5t-7.5 -21t-3 -23.5t-0.5 -24q0 -10 2 -17.5t8 -9.5q8 -2 24 1.5t24 6.5
q10 5 25 15t23 21z" />
    <glyph glyph-name="c" unicode="c" horiz-adv-x="406" 
d="M373 527q1 -22 0 -43.5t-1 -43.5q0 -9 -0.5 -18.5t0.5 -18.5t3 -18.5t-2 -17.5q-7 -16 -24 -24q-14 -7 -30 -7q-22 0 -39 13.5t-22 36.5q-4 14 -4 28.5t1 28.5q0 16 -4.5 26t-20.5 -6q-11 -11 -20.5 -29t-15.5 -32q-9 -20 -17.5 -41t-13.5 -43q-3 -16 -5.5 -32.5
t-2.5 -33.5q0 -21 4 -41t14 -38q24 -45 57 -45q27 0 50 29q8 10 15.5 20.5t16.5 18t22 10t31 -3.5q16 -5 22.5 -17t6.5 -28q0 -13 -3.5 -26.5t-8.5 -25.5q-17 -40 -47.5 -73.5t-71.5 -47.5q-26 -8 -54 -8q-23 0 -46 5t-40 15q-35 22 -56.5 59t-32.5 76q-6 23 -9 48.5
t-3 51.5q0 66 17 126q18 60 44 110t69 96q12 13 28 26.5t34 24t37.5 17.5t38.5 7q34 0 59 -26q17 -20 20.5 -40t3.5 -45z" />
    <glyph glyph-name="d" unicode="d" horiz-adv-x="409" 
d="M382 585q11 -24 15.5 -52t4.5 -58q0 -48 -10 -94.5t-27 -82.5q-9 -19 -16.5 -36t-15.5 -34t-17.5 -36t-22.5 -41q-21 -38 -45 -69.5t-53 -61.5q-9 -9 -20 -18.5t-23.5 -17.5t-25.5 -13t-26 -5q-12 0 -23.5 5.5t-21.5 19.5q-11 16 -17.5 31.5t-4.5 34.5q1 11 1.5 20.5
t1.5 20.5q1 14 2 25.5t2 25.5q2 16 3 37t0 38q-1 32 -3 63t-7 63t-11.5 67t0.5 69q4 30 20.5 50t38.5 34.5t47 25.5t48 23q54 28 103 28q34 0 61.5 -15t41.5 -47zM247 357q7 28 14.5 55t5.5 56q-1 14 -5 25t-24 7q-15 -3 -28 -9t-26 -13q-14 -7 -23 -14t-8 -22
q0 -14 1.5 -27t3.5 -27q2 -19 3 -34t1 -29q0 -22 -0.5 -45.5t1.5 -46.5q1 -7 3 -12.5t10 -0.5q8 7 18.5 22.5t14.5 24.5q8 17 13.5 28l10 20t8 18.5t6.5 23.5z" />
    <glyph glyph-name="e" unicode="e" horiz-adv-x="359" 
d="M157 389q2 -9 5 -9t10 4q22 12 45 21.5t46 14.5q27 7 40.5 -10.5t15.5 -46.5q0 -12 -2 -23.5t-7 -22.5q-8 -14 -17 -16t-22 -7q-23 -7 -45 -15t-44 -23q-10 -6 -18 -11.5t-11 -19.5q-2 -11 -1.5 -19t0.5 -18q1 -10 2.5 -19t4.5 -15t8.5 -8t15.5 2q13 6 26.5 12.5t28 11.5
t29 6.5t29.5 -2.5q9 -3 17.5 -10t15 -16.5t11 -20.5t4.5 -22q0 -17 -12 -29q-11 -10 -26.5 -16t-28.5 -11l-30 -12t-29 -17q-15 -11 -29 -22.5t-28 -23.5q-25 -19 -55 -9q-29 11 -47.5 34t-23.5 52t-6.5 59t-1.5 60q0 32 0.5 56t1 42.5t1 33.5t0.5 29q0 13 0.5 29.5
t1.5 29.5q2 26 3 47t3 47q1 13 4.5 28.5t8.5 26.5q9 17 20.5 28t24.5 18.5t26.5 13t26.5 13.5q29 17 64.5 27.5t69.5 8.5q15 -1 30.5 -7t26.5 -16.5t16 -25.5t0 -33q-4 -15 -15.5 -22.5t-26 -11.5t-29.5 -6t-27 -5q-12 -4 -25.5 -7.5t-25.5 -9t-22 -14.5t-16 -22
q-8 -17 -12 -40.5t0 -40.5z" />
    <glyph glyph-name="f" unicode="f" horiz-adv-x="353" 
d="M26 209q-3 57 -2 110t8 104l4 42t5 42q4 20 14 35.5t24.5 27t31 20.5t32.5 17q34 16 61.5 23t63.5 11q29 2 53 -14t27 -51q2 -16 0.5 -29t-11.5 -25q-11 -14 -28.5 -16t-31.5 -3q-18 -2 -40.5 -10.5t-40.5 -18.5q-12 -8 -22 -16.5t-13 -24.5t-6 -33.5t-4 -33.5
q0 -17 6 -23.5t16 -6.5q16 0 36 11t33 16q13 6 28 12t29 5q11 0 20 -10.5t13 -21.5q6 -15 6 -35q0 -23 -10 -44t-31 -26q-29 -7 -59.5 -12.5t-57.5 -18.5q-14 -8 -21 -16t-8 -28q0 -17 2.5 -35t6.5 -35l4.5 -27t2.5 -29q0 -22 -8 -40.5t-31 -26.5q-16 -5 -30.5 -1t-26 14
t-20 24t-12.5 29q-10 39 -10.5 83t-2.5 85z" />
    <glyph glyph-name="g" unicode="g" horiz-adv-x="445" 
d="M363 597q10 -16 12.5 -34.5t0.5 -36.5t-1.5 -35t-2 -33t-10 -31t-23.5 -29q-14 -11 -36 -11q-16 0 -29 8q-8 6 -10.5 14t-3.5 16t-1 16.5t-4 15.5q-6 11 -14 8.5t-17 -12.5t-18.5 -26t-17 -32t-12.5 -29t-6 -17q-5 -22 -10.5 -50.5t-5.5 -57.5q0 -26 6 -48t22 -38
q11 -11 24 -16t26 -5q20 0 36 11t24 33q6 19 0.5 26.5t-28.5 -0.5q-14 -5 -30 -5t-27 15q-11 14 -11 31q0 13 5.5 25.5t14 23t19 18.5t21.5 12q23 8 44 13t39 5q41 0 64 -24q12 -14 20 -34.5t8 -50.5q0 -21 -5 -48t-16 -59q-10 -28 -29 -55t-43 -49q-26 -22 -64.5 -35
t-73.5 -13q-70 0 -117 55q-35 38 -48 90t-13 105q0 12 0.5 24t1.5 24q7 75 34.5 144.5t77.5 126.5q15 17 33.5 35t40 32.5t45.5 22.5t48 5q18 -2 34 -14t26 -27z" />
    <glyph glyph-name="h" unicode="h" 
d="M375 192q2 -17 5.5 -38t3.5 -43q0 -18 -4 -34.5t-16 -29.5q-14 -15 -35 -15q-16 0 -32 8q-23 11 -31 22.5t-16 32.5q-5 14 -7 30t-3 33v17t-0.5 24.5t-2.5 22.5t-8 12q-7 2 -23 -5t-23 -11q-11 -7 -13.5 -16.5t-4.5 -20.5q-1 -26 -1.5 -50.5t2.5 -48.5q2 -17 3.5 -34.5
t0.5 -34.5q-1 -13 -4.5 -20.5t-16.5 -15.5t-31 -8q-24 0 -43 12q-18 10 -28.5 27t-15 36t-5.5 39t-1 37q0 33 2.5 66.5t5.5 67.5q1 20 2 37.5t0 37.5q-2 38 -4 76.5t-2 76.5q0 13 0.5 25.5t3.5 22.5q9 32 36.5 50t69.5 21q9 0 18 -0.5t15 -7.5q8 -10 10 -26q2 -12 0 -24
t-3 -24q-2 -14 -4 -32t-4 -37t-3 -36t1 -28q2 -17 12.5 -14.5t23.5 6.5q15 5 21.5 12.5t8.5 21.5q2 13 3 25.5t3 25.5q4 20 4.5 40t3.5 40q2 17 4.5 33.5t9 30.5t20 24t37.5 13q46 5 61.5 -15.5t15.5 -54.5q0 -17 -2.5 -36t-6 -38t-7 -37.5t-4.5 -33.5q-1 -10 -3 -27t-3 -27
q-1 -20 -1.5 -34.5t-1.5 -34.5q-2 -29 0 -57t7 -57z" />
    <glyph glyph-name="i" unicode="i" horiz-adv-x="199" 
d="M165 398q-3 -36 -5 -65.5t-3 -57.5q-2 -30 0 -58t6 -57q2 -17 5.5 -38t3.5 -43q0 -18 -4 -34.5t-15 -28.5q-13 -16 -33 -16q-8 0 -15.5 2.5t-15.5 6.5q-21 11 -28.5 22t-15.5 32q-8 23 -9 52.5t-1 53.5q0 33 -1 60t1 53q3 56 2.5 114t6.5 116q2 17 4 33.5t8.5 30.5
t19 23.5t35.5 12.5q43 5 58 -15.5t15 -54.5t-8.5 -73.5t-10.5 -70.5z" />
    <glyph glyph-name="j" unicode="j" horiz-adv-x="382" 
d="M355 336q1 -26 4 -50.5t5 -47t2.5 -44t-2.5 -42.5q-6 -43 -25.5 -75t-48.5 -53.5t-65 -32t-73 -8.5q-14 1 -30.5 4.5t-32.5 10.5t-29.5 17t-22.5 24q-10 17 -14 38.5t-5 40.5q-2 29 5 53.5t30 41.5q11 8 26.5 13.5t32.5 5.5q28 0 43 -16q6 -7 8 -13.5t2 -13.5
q0 -17 -5 -33t3 -31q3 -6 9.5 -6.5t13.5 2t14 7.5t11 10q14 17 20.5 43.5t4.5 58.5q-1 24 -2.5 42.5t-4 35.5t-4.5 35.5t-5 42.5q-4 32 -12 67.5t-8 69.5q0 20 4 37.5t15 32.5q8 13 25.5 20.5t35.5 7.5q26 0 40 -15q18 -21 21 -50q2 -21 3.5 -36.5t1.5 -35.5q0 -42 3.5 -81
t5.5 -77z" />
    <glyph glyph-name="k" unicode="k" horiz-adv-x="432" 
d="M420 127q0 -17 -10 -30.5t-24 -21.5t-30 -8.5t-29 10.5q-26 23 -56 46t-62 38q-33 16 -41.5 9.5t-8.5 -36.5q0 -29 3 -50.5t5 -50.5q1 -14 -1.5 -26.5t-13.5 -21.5q-15 -12 -34 -12q-20 0 -39 12t-29 29q-10 18 -12 38l-4 40q-4 29 -2.5 57.5t3.5 55.5q3 54 3 110
q0 31 -1 61.5t-3 61.5q-1 13 -2 26.5t-1 26.5q0 33 11.5 61.5t50.5 45.5q14 6 32 9t33 -2t19 -19.5t3 -26.5q-2 -38 -6.5 -72.5t-4.5 -69.5q0 -11 3 -12.5t7.5 2t9.5 10.5t8 12q6 12 12 24.5t12 25.5q28 58 66 110q7 10 18.5 21t25.5 19t29.5 10.5t29.5 -5.5
q15 -8 21.5 -19.5t6.5 -24.5q0 -15 -2 -32t-13 -28q-19 -21 -36.5 -49t-34.5 -55q-14 -23 -28 -54.5t-14 -58.5q0 -17 2 -25.5t12 -18.5l20.5 -20.5t20.5 -19.5q12 -11 25 -22t24 -23.5t18.5 -26.5t7.5 -30z" />
    <glyph glyph-name="l" unicode="l" horiz-adv-x="364" 
d="M38 384q2 35 4.5 69t-0.5 69q-2 15 -1 31.5t6 31.5q5 14 8.5 23.5t14.5 17.5q14 10 39 10q15 0 30.5 -4.5t27.5 -12t19 -18t6 -23.5q-5 -42 -13.5 -85.5t-13.5 -87.5q-3 -33 -5.5 -67t-2.5 -63q0 -6 0.5 -23t2 -36t4.5 -34.5t9 -18.5q7 -3 17.5 0t16.5 5q8 3 13 5.5
t10 4.5t10.5 3.5t13.5 2.5q38 5 65.5 -7t40.5 -50q7 -21 -1.5 -32.5t-24.5 -18.5t-35.5 -11.5t-33.5 -10.5q-11 -5 -19.5 -8.5t-15.5 -7t-14.5 -7.5t-17.5 -11q-9 -6 -15 -12.5t-12 -12t-13.5 -9.5t-18.5 -7q-17 -4 -34.5 -1.5t-32.5 10.5t-27 20.5t-18 27.5
q-7 18 -3.5 35.5t5.5 34.5q6 49 6 101q0 40 0.5 88.5t2.5 88.5z" />
    <glyph glyph-name="m" unicode="m" horiz-adv-x="526" 
d="M45 324q1 16 1 32v32v31.5t2 32.5q2 21 5.5 44t12.5 42t25.5 32t43.5 14q20 2 37 -7t25 -27t13 -30t7 -27q1 -12 4.5 -26.5t8.5 -26.5t11.5 -20t13.5 -8q8 0 16 12t14.5 28t10.5 31t6 21q4 15 6 25t5 34q2 19 6.5 36.5t14.5 33.5q11 17 32 25t40 3q24 -8 38 -21.5
t21 -31.5t9 -38.5t2 -42.5q0 -63 3 -114t10 -105q7 -63 12 -117t5 -112q0 -20 -5 -37.5t-25 -28.5q-16 -8 -36.5 -11t-36.5 5q-24 11 -31 32.5t-7 46.5q0 27 1 51t1 47q0 16 -0.5 35t-2 33.5t-5.5 20.5t-10 -4q-5 -8 -10.5 -38t-10 -64.5t-8 -65t-5.5 -39.5
q-4 -19 -12 -32.5t-28 -20.5q-17 -5 -32.5 1.5t-23.5 19.5q-9 13 -13 42.5t-6.5 61t-6.5 58.5t-13 36t-14 -8t-7.5 -46.5t-3.5 -65.5t-1 -67v-41q0 -26 -13.5 -38t-32.5 -12q-20 0 -39.5 11t-30.5 28q-10 17 -14 35.5t-4 37.5q-1 28 2.5 62t8 69t9 68.5t5.5 62.5z" />
    <glyph glyph-name="n" unicode="n" horiz-adv-x="452" 
d="M194 484q5 -16 8.5 -29t8 -25t10.5 -25t15 -28q3 -5 7 -12t8 -11.5t8 -4t7 9.5q5 14 5.5 27.5t0.5 29.5t-0.5 28t-0.5 23t-0.5 23t-0.5 28q0 15 1 31.5t5 32t12.5 29.5t22.5 25q14 10 31 13.5t34 -1.5q18 -5 25 -17t11 -27q4 -17 1 -31.5t-7 -31.5t-4.5 -36.5t-1.5 -37.5
q-1 -12 -1 -24.5v-25.5q0 -35 1.5 -68.5t3.5 -68.5q2 -40 8 -80.5t17 -78.5q4 -14 7 -29.5t-5 -29.5q-11 -18 -33 -25t-44 -6q-20 1 -36 9.5t-29 21.5t-23 28t-19 29q-8 12 -16.5 24.5t-16.5 25.5q-5 8 -14.5 21.5t-20.5 18.5q-6 2 -8.5 -6t-3.5 -20t-1 -25v-21
q-1 -23 2 -45.5t7 -45.5q2 -8 3.5 -17.5t1.5 -19.5q0 -19 -9 -31q-7 -8 -18 -11.5t-23 -3.5q-26 0 -44 10q-28 16 -39 40.5t-15 51.5q-2 12 -3 24t-1 25q0 20 1.5 40.5t2.5 40.5q2 42 8.5 81t6.5 79q0 30 -6 60q-5 20 -9.5 39.5t-4.5 39.5q0 25 13 48q6 10 18 22t26.5 20.5
t30 11.5t29.5 -5q16 -9 24 -21.5t12.5 -27.5t7 -30t6.5 -28z" />
    <glyph glyph-name="o" unicode="o" horiz-adv-x="405" 
d="M381 426q3 -32 3.5 -64t0.5 -68q0 -98 -43 -198q-15 -33 -39.5 -57.5t-56.5 -44.5q-21 -13 -51.5 -19.5t-59.5 1.5q-30 9 -49.5 32.5t-32.5 54.5t-19.5 64.5t-10.5 62.5q-2 18 -3 35t-1 34q0 62 11 126q7 43 18 81.5t36 78.5q20 32 50 58.5t71 34.5q8 2 15.5 3t15.5 1
q26 0 48.5 -10t38.5 -31q12 -14 19 -32t14 -35q10 -27 15.5 -53.5t9.5 -54.5zM255 315q1 15 0.5 38t-4 47.5t-10 47t-16.5 34.5q-11 13 -19.5 5.5t-14.5 -19.5q-18 -36 -25 -75t-11 -78q-1 -9 -1.5 -18.5t-0.5 -19.5q0 -29 5 -57t18 -54q4 -8 11.5 -18t16.5 -13q8 -2 15 7
t12 22.5t8.5 27.5t4.5 20q10 52 11 103z" />
    <glyph glyph-name="p" unicode="p" horiz-adv-x="401" 
d="M300 642q50 -12 72 -49t22 -81q0 -33 -10.5 -66.5t-29.5 -60.5q-15 -20 -32 -41q-40 -52 -99 -109q-11 -11 -23.5 -25.5t-21.5 -26.5q-10 -13 -11.5 -24t-0.5 -25q2 -31 5 -61t0 -62q-2 -23 -18 -34.5t-36 -11.5q-22 0 -41 14q-17 13 -23 32t-10 39q-2 15 -3 31t-2 36
t-1 46v61q2 22 0.5 37t0.5 37q2 26 -0.5 54t-7.5 57q-2 20 -5.5 38.5t-3.5 41.5q0 18 3.5 36.5t14.5 33.5q6 9 15 17t19 14q31 17 63 30.5t72 22.5q21 6 44.5 5.5t47.5 -6.5zM243 455q4 7 7.5 17.5t4.5 20t-1.5 18t-9.5 13.5q-7 4 -17.5 3.5t-21 -4t-19 -10.5t-12.5 -15
q-8 -17 -7 -30t-1 -30q-1 -16 -1.5 -34t1.5 -34q2 -12 9.5 -8.5t15.5 11.5q18 18 29.5 39.5t22.5 42.5z" />
    <glyph glyph-name="q" unicode="q" horiz-adv-x="461" 
d="M451 119q15 -20 20.5 -40t-3.5 -43q-4 -11 -11 -20.5t-16 -15.5t-20 -6.5t-24 7.5q-12 8 -21.5 21t-19.5 24q-8 9 -13 11t-9 0.5t-8.5 -6t-10.5 -8.5q-22 -24 -46.5 -39t-55.5 -26q-14 -5 -32 -6.5t-38 4.5q-30 9 -49.5 32.5t-32.5 54.5t-20 64.5t-11 62.5q-2 17 -3 33.5
t-1 32.5q0 34 3.5 65.5t8.5 63.5q7 44 18 81.5t36 78.5q20 32 49.5 58.5t71.5 35.5q30 7 63.5 -1.5t54.5 -35.5q12 -15 19 -33t14 -35q10 -27 15.5 -53.5t8.5 -54.5q4 -33 4.5 -66.5t0.5 -65.5q0 -18 -2 -35.5t-4 -34.5q0 -19 12 -38q12 -18 25.5 -34t26.5 -33zM184 166
q4 -8 11.5 -18t16.5 -12q12 -4 16.5 6.5t6.5 18.5q0 14 -8 21.5t-15 17.5q-14 19 -6 38.5t26 33.5q9 7 16 10t12 14q1 2 2 6t1 13q2 29 -2 58.5t-9 58.5q-2 14 -6 26.5t-13 23.5q-11 13 -19.5 5.5t-14.5 -19.5q-18 -36 -25 -75t-11 -78q-1 -9 -1.5 -18.5t-0.5 -19.5
q0 -29 5 -57t18 -54z" />
    <glyph glyph-name="r" unicode="r" horiz-adv-x="419" 
d="M403 172q10 -16 14 -35t-2 -36q-3 -8 -7.5 -17.5t-12 -17.5t-17.5 -12t-23 -1q-16 4 -29.5 17.5t-25.5 23.5q-14 11 -28 23t-31 21q-3 2 -12 7.5t-19.5 10.5t-19.5 8t-13 0q-11 -8 -11.5 -21t0.5 -27q1 -15 2.5 -27.5t2.5 -24.5t1 -24.5t-1 -28.5q-2 -23 -18 -34.5
t-36 -11.5q-21 0 -41 14q-12 9 -19 23.5t-10.5 30.5t-5 32.5t-2.5 31.5q-2 30 -2.5 62t1.5 65q3 45 0.5 90.5t-7.5 94.5q-3 20 -6 40.5t-3 43.5q0 18 3.5 35.5t13.5 31.5q18 22 43 34.5t52 24.5q36 18 79.5 26t85.5 -3q50 -12 72 -49t22 -81q0 -33 -10.5 -66.5t-29.5 -60.5
q-7 -11 -15 -21l-16 -20q-7 -8 -14 -17t-15 -17q-6 -11 -3 -19t17 -19q12 -11 23 -21t23 -21q14 -14 27 -28t23 -30zM166 438q-1 -16 -1.5 -33.5t1.5 -33.5q2 -13 9.5 -9.5t15.5 11.5q18 18 29.5 39.5t22.5 42.5q4 7 7.5 17.5t4.5 20t-1.5 18t-9.5 13.5q-7 4 -17 3.5
t-20.5 -4t-19.5 -10.5t-13 -15q-8 -17 -7 -30t-1 -30z" />
    <glyph glyph-name="s" unicode="s" 
d="M405 149q-2 -61 -44.5 -110t-127.5 -70q-25 -7 -52 -7q-36 0 -64.5 12.5t-49.5 32.5t-33 46t-13 53q-1 9 -1.5 19t-0.5 20q1 38 27 62q11 10 25.5 15.5t27.5 5.5q17 0 29 -10t13 -31q0 -23 6 -37t23 -32q4 -5 12 -7t16 -2.5t15 1t10 3.5q22 14 20 32t-15.5 36t-31.5 33
t-27 23q-22 20 -48.5 43.5t-48.5 42.5q-25 21 -41.5 42t-17.5 52q-1 18 3.5 37.5t13 38.5t20 36.5t25.5 31.5q30 32 75 56.5t92 32.5q12 2 27.5 1.5t30.5 -4.5t27.5 -10.5t20.5 -16.5q10 -14 18 -33.5t-2 -55.5q-6 -21 -8.5 -33.5t-4 -22.5t-3.5 -19.5t-6 -24.5
q-2 -12 -19 -22t-31 -11q-24 1 -42.5 8.5t-25.5 28.5q-4 11 -3.5 21.5t2.5 21.5q2 14 -2 21t-20 1q-40 -16 -42 -51q-1 -14 7.5 -30t28.5 -31q16 -13 28.5 -22.5t24 -18.5t23 -18.5t25.5 -21.5q26 -22 47 -42t32 -36q21 -32 25.5 -48t4.5 -32z" />
    <glyph glyph-name="t" unicode="t" horiz-adv-x="373" 
d="M346 532q-17 -9 -33 -9.5t-33 -8.5q-10 -5 -14.5 -10t-6.5 -11t-2 -14.5t-1 -20.5q-4 -46 -5 -91.5t-1 -91.5v-70q1 -24 1 -52.5t2 -52.5q1 -18 1.5 -37.5t0.5 -36.5q-1 -20 -7 -34.5t-26 -18.5q-46 -9 -74 25q-17 20 -24 55t-7 83q0 14 0.5 28.5t1.5 30.5q2 23 2 49.5
v54.5v93v19.5t-1 24t-4.5 19t-10.5 6.5q-19 -3 -39 -7.5t-36 3.5q-13 6 -18 23.5t-5 31.5q0 16 5.5 30t14.5 19q18 9 42 17t41 14t33.5 12.5t33.5 12.5q25 8 52 16t54 9q21 2 43 -5t35 -24q15 -15 15 -36q0 -14 -8 -25.5t-22 -19.5z" />
    <glyph glyph-name="u" unicode="u" horiz-adv-x="421" 
d="M25 225q0 32 -0.5 65.5t2.5 75.5q4 43 5.5 85.5t14.5 85.5q10 23 34.5 39t55.5 12q20 -3 29 -16t7 -30q-1 -23 -1.5 -46t-2.5 -47q-3 -39 -5.5 -81.5t-2.5 -106.5v-25t1.5 -40.5t4.5 -40t9 -22.5q6 -5 16.5 -2.5t16.5 4.5q14 5 23 15t14 24q9 28 10.5 60t1.5 82v79v69
t1 70q1 23 0.5 44t10.5 39t33.5 24.5t44.5 4.5q23 -1 30.5 -14.5t12.5 -30.5q5 -20 7 -43t2 -47q0 -48 -4.5 -97t-4.5 -91q0 -53 -2 -105t-15 -103q-5 -20 -13 -38t-23 -33q-16 -17 -43.5 -28.5t-48.5 -22.5q-22 -11 -49 -18.5t-53 -7.5q-29 0 -56.5 11.5t-41.5 40.5
q-11 22 -14.5 42t-3.5 43q0 17 -0.5 31t-1.5 28t-1 29v33z" />
    <glyph glyph-name="v" unicode="v" horiz-adv-x="391" 
d="M54 221q-11 67 -22.5 133t-20.5 133q-2 15 0.5 30.5t12.5 28.5q14 19 41.5 28t50.5 0q8 -4 13 -11t7.5 -15.5t3.5 -17.5t2 -16q3 -30 7.5 -56.5t7.5 -63.5q1 -16 2 -26.5t3 -33.5q1 -13 2.5 -26t2.5 -25q1 -7 2 -16t3 -16.5t5 -13t9 -5.5q12 -2 16.5 9.5t7.5 22.5
q5 19 9 37.5t7 38.5q7 41 11 82.5t2 84.5q0 8 -0.5 17t-0.5 17q0 25 7.5 47t35.5 36q32 18 67 7q23 -8 27.5 -28.5t4.5 -44.5q0 -17 -2 -34.5t-4 -34.5q-5 -45 -12 -87.5t-19 -90.5q-18 -79 -45 -155q-9 -26 -21 -50t-23 -50q-6 -14 -14.5 -28t-19.5 -25t-26.5 -18t-34.5 -6
q-38 1 -62 22t-26 54q-2 42 -6 83t-11 83z" />
    <glyph glyph-name="w" unicode="w" horiz-adv-x="531" 
d="M20 472q0 34 0.5 48.5t3.5 25.5q8 32 36.5 41.5t59.5 3.5q17 -3 24.5 -18t10.5 -33.5t2.5 -37.5t1.5 -30q1 -9 1.5 -29.5t1 -46t1.5 -53t3.5 -49.5t6 -36.5t9.5 -13.5q4 0 7 4.5t5 10t3.5 11t1.5 8.5q3 38 3 74.5v71.5q0 16 1 32.5t5.5 31t13.5 26t25 17.5q11 5 27 7
t26 -6q8 -6 13.5 -21.5t9.5 -33.5t6 -34.5t3 -25.5q2 -17 2.5 -33t2.5 -32q0 -3 1.5 -16t4.5 -25.5t7.5 -20t10.5 -0.5q4 5 7.5 14t6 18.5t4 19t1.5 15.5q1 23 2.5 46t0.5 46q-2 26 -3.5 52t-5.5 51q-2 17 -3 32t5 29q7 17 22 24.5t32 7.5q26 0 44 -15q25 -21 34 -54.5
t9 -62.5q-1 -52 -2 -105t-6 -105q-1 -9 -2.5 -21.5t-3 -26.5t-3.5 -27.5t-3 -23.5q-2 -19 -4.5 -33t-5.5 -27t-6 -27t-6 -32q-3 -14 -10 -31t-17 -28t-28 -22t-35 -11q-18 -1 -29.5 4.5t-19.5 19.5q-7 11 -11 24t-8.5 25.5t-10 24.5t-15.5 22q-12 11 -22 6t-18 -17
t-14.5 -26t-10.5 -20q-8 -14 -16.5 -30t-19 -29.5t-24.5 -22t-33 -6.5q-17 2 -34 12.5t-26 23.5q-14 22 -16 51t-3 54q-1 20 -1.5 38.5t-2.5 37.5q-10 71 -20 143t-10 144z" />
    <glyph glyph-name="x" unicode="x" horiz-adv-x="387" 
d="M341 477q-23 -36 -42 -74q-11 -19 -20.5 -39.5t-17.5 -40.5q-4 -10 -7.5 -19.5t-3.5 -20.5q0 -15 6 -30.5t15 -30.5t19 -28.5t18 -25.5q9 -13 19.5 -28t19 -31.5t11.5 -33.5t-3 -33q-7 -18 -22.5 -28t-33.5 -10q-17 0 -32 9q-11 8 -21 22t-18 25q-8 12 -14 25l-12 26
l-5 10t-7 11t-8.5 7t-9.5 -2q-8 -7 -12.5 -23.5t-7.5 -26.5q-4 -15 -8 -31t-10 -31t-15.5 -28t-24.5 -20q-14 -7 -28 -4t-24.5 12t-17.5 22t-8 27q-1 18 2.5 35t8.5 34q8 22 15 43.5t17 42.5q7 16 15.5 31.5t14.5 32t8 33.5t-3 35q-5 14 -11.5 26.5t-12.5 26.5
q-8 17 -14.5 34.5t-14.5 34.5q-7 16 -10.5 31.5t-3.5 32.5t8.5 29t21.5 23q20 19 45 19q15 0 28.5 -9t21.5 -27q7 -15 10 -27t8 -28q7 -20 16.5 -18.5t17.5 13.5q14 23 27.5 47.5t24.5 49.5q5 10 11.5 21.5t15.5 20.5t19.5 14.5t24.5 4.5q12 -1 24 -6.5t22 -13.5t16 -19.5
t6 -24.5q0 -16 -7 -27t-15 -24l-16 -24z" />
    <glyph glyph-name="y" unicode="y" 
d="M361 457q-17 -27 -32.5 -61t-28.5 -63t-23 -58.5t-22 -59.5q-15 -39 -24 -79.5t-17 -75.5t-18.5 -60t-28.5 -31q-11 -4 -29.5 -3.5t-35.5 15.5q-14 12 -17 27t-4 35q0 31 12 62.5t19 66.5q1 8 1.5 19t-0.5 22.5t-3.5 22t-5.5 17.5q-15 32 -25 60t-24 63q-15 36 -29 75.5
t-20 78.5q-3 19 2.5 36t17 29t28 19t36.5 6q17 -1 28 -7.5t15 -23.5q3 -16 5.5 -36t4.5 -37q1 -13 5 -34.5t10 -40.5t14.5 -30t18.5 -3q8 6 16.5 22t16.5 35.5t14.5 38.5t10.5 30q6 15 12.5 32t15.5 33t21 28.5t29 17.5q15 5 31 3t29.5 -9.5t22.5 -21t9 -31.5
q0 -36 -19.5 -67.5t-38.5 -61.5z" />
    <glyph glyph-name="z" unicode="z" horiz-adv-x="396" 
d="M387 594q1 -17 -8.5 -33.5t-18.5 -30.5q-12 -19 -24 -37t-23 -37q-13 -21 -23.5 -38.5t-19.5 -35t-18.5 -36t-21.5 -42.5q-8 -18 -18 -41t-15 -42q-1 -5 -4 -14.5t-5 -19t-2 -18.5t5 -13q4 -3 11.5 -2t16 4.5t16.5 7.5l12 6q20 10 37.5 10.5t34.5 -4.5q21 -7 39 -29.5
t18 -46.5q0 -19 -11 -31q-6 -7 -14.5 -11t-18 -6.5t-19 -4.5t-17.5 -5q-19 -8 -37 -17t-36 -19t-36 -19t-35 -20q-34 -18 -65 -5q-19 7 -29.5 21.5t-16 32t-6 36t0.5 35.5q3 46 11 88t21.5 81.5t32.5 77.5t43 78q3 5 12.5 18.5t15.5 25.5t3.5 18t-24.5 -3q-15 -6 -33 -12.5
t-32 -12.5q-17 -8 -30 -8t-26 14q-8 8 -11 21t-3 27t3 25.5t8 18.5q12 14 26.5 23t30 15.5t31 11t29.5 9.5q19 7 37 16t37 17q16 7 39.5 12.5t47.5 5.5q19 0 36 -5t30 -16q8 -8 11.5 -19t4.5 -22z" />
    <glyph glyph-name="braceleft" unicode="{" horiz-adv-x="422" 
d="M169 486q0 17 6.5 32.5t20.5 24.5q15 9 33 9q15 0 30.5 -5t28.5 -12q24 -12 48 -30t34 -44q5 -14 1.5 -25t-12 -18t-20.5 -11t-23 -5q-9 0 -24 1t-30.5 3t-29.5 4.5t-22 5.5q-21 8 -31 29t-10 41zM299 315q-1 11 -7 18.5t-14.5 12t-17.5 7.5t-17 5q-20 5 -39.5 7t-39.5 5
q-21 3 -43 5.5t-44 -1.5q-12 -2 -22.5 -10.5t-17 -20.5t-9 -26.5t1.5 -28.5q8 -29 28.5 -40t45.5 -9q26 3 52 6.5t53 3.5q14 0 30.5 2t30.5 9t22.5 20t6.5 35zM329 228q-13 0 -22.5 -3.5t-21.5 -6.5t-24 -5t-24 -7q-21 -8 -42 -20.5t-32 -33.5q-8 -16 -8 -37q0 -11 3 -20
t11 -15q11 -8 24 -12.5t26 -5.5q15 -1 26 2.5t20.5 9.5t18.5 14.5t19 18.5l16 14t16 15q18 14 26 34t-4 41q-9 17 -28 17z" />
    <glyph glyph-name="braceright" unicode="}" horiz-adv-x="405" 
d="M242 160q3 -8 5 -16t2 -17q0 -17 -6.5 -32.5t-20.5 -23.5q-15 -9 -34 -9q-15 0 -30.5 4.5t-27.5 11.5q-25 12 -49 30t-33 44q-3 8 0 23t9 22t20.5 10.5t23.5 3.5q13 1 26 -1l26 -4q14 -3 27 -3t27 -5t21.5 -14.5t13.5 -23.5zM118 299q-2 22 6.5 35t22.5 20t31 9t31 2
q26 0 52 3l52 6q25 3 45.5 -8.5t28.5 -40.5q4 -14 2 -28.5t-9 -26.5t-17 -20.5t-23 -10.5q-22 -3 -43.5 -1t-43.5 5q-26 4 -51.5 8t-51.5 14q-14 4 -22 10.5t-10 23.5zM88 386q-8 0 -16 4.5t-12 11.5q-12 23 -3 45q4 10 11 17l14 14q16 13 32 29q20 19 37 32t47 12
q29 -2 50 -18q15 -12 15 -35q0 -10 -2.5 -19t-6.5 -17q-10 -21 -31.5 -34t-42.5 -21q-20 -6 -44.5 -13.5t-47.5 -7.5z" />
    <glyph glyph-name="exclam" unicode="!" horiz-adv-x="271" 
d="M164 73q2 -11 3 -21t-3 -21t-11 -17.5t-16 -13.5t-20 -11l-22 -8q-9 -2 -18 -2.5t-18 3.5q-15 6 -25 22t-11 33q0 17 7.5 34t21.5 26q7 4 14.5 6t15.5 4q11 2 21 2h21t19 -4t13.5 -13.5t7.5 -18.5zM281 558q2 -11 -1.5 -22t-8.5 -21.5t-11.5 -20.5t-10.5 -19
q-26 -57 -45 -121l-15 -54q-6 -26 -14 -52t-21 -49q-5 -11 -13.5 -20t-20.5 -14q-20 -7 -31 2t-16.5 24.5t-7 33t-1.5 28.5q-1 65 12 130t33 126q6 16 16 36.5t24 37t33.5 26t43.5 3.5q18 -4 35 -20.5t20 -33.5z" />
    <glyph glyph-name="asterisk" unicode="*" horiz-adv-x="333" 
d="M196 635q2 -11 0.5 -20.5t-0.5 -20.5q0 -5 2 -13.5t10 -2.5q9 8 17.5 18.5t20.5 17.5q11 6 27.5 5t24.5 -12q8 -12 5 -23t-11 -21t-19 -18t-18 -14q-14 -11 -4.5 -20t22.5 -17t22 -15.5t9 -24.5q1 -15 -8 -23.5t-23 -12.5t-26 2t-23 14q-8 7 -18.5 15.5t-19.5 1.5
q-13 -8 -18.5 -20t-10.5 -23t-16.5 -23t-25.5 -12q-13 0 -24.5 9t-12.5 22q0 18 10 32.5t21 28.5q15 21 -8 28q-12 4 -24.5 7.5t-23 9.5t-18 15t-10.5 24q-2 12 1.5 24t16.5 17q12 3 23 -2t22 -11q3 -2 7.5 -6t9.5 -6t10 -2t8 6q2 4 2 7.5t-1 7.5q-1 5 -1 10t-1 10
q-1 10 0.5 22.5t6 22t13.5 15t23 2.5q26 -7 31 -31z" />
    <glyph glyph-name="ampersand" unicode="&#x26;" horiz-adv-x="603" 
d="M71 29q-19 28 -19 62q0 30 11 61t23 60q8 17 13 31.5t-8 29.5q-11 11 -24.5 18.5t-23.5 19.5q-13 16 -19 36.5t-6 43.5q0 29 9 55q24 68 74 114.5t119 64.5q24 6 50 6q43 0 81 -18t57 -55q7 -13 7 -29q0 -18 -9 -33.5t-22.5 -26t-29 -13.5t-29.5 5q-8 5 -15.5 11.5
t-15.5 12.5t-17.5 9.5t-19.5 2.5q-22 -3 -41.5 -10t-36.5 -24q-15 -15 -15 -36q0 -17 8 -29q8 -14 25 -19t32 -3q16 2 33.5 2t28.5 -11q21 -20 17 -49q-2 -19 -15.5 -34.5t-29.5 -26.5q-13 -9 -22.5 -19t-18.5 -23q-17 -25 -17 -53q0 -24 14.5 -38t44.5 0q16 7 30 15t24 18
t15 23.5t4 32.5q-2 15 -5.5 29t-4.5 28q-1 15 6.5 31.5t18.5 27.5q26 29 62 52.5t74 31.5q37 7 67 -5.5t37 -51.5q3 -16 -2 -33t-20 -27q-15 -11 -31.5 -11t-32.5 -4q-14 -4 -28 -15t-16 -26q-2 -10 1.5 -27t0.5 -33q-6 -40 -29.5 -75t-57.5 -61.5t-74.5 -42.5t-78.5 -18
q-8 -1 -16 -1h-16q-17 0 -34.5 2t-33 7t-29.5 14.5t-24 23.5z" />
    <glyph glyph-name="backslash" unicode="\" horiz-adv-x="500" 
d="M351 221q16 -26 39 -57t44 -62t35.5 -60.5t14.5 -53.5q0 -17 -9 -29.5t-32 -20.5q-21 -8 -38.5 -2t-32 19.5t-27.5 32.5l-26 38q-43 66 -81 135.5t-76 135.5q-20 34 -37.5 67.5t-36.5 67.5q-16 29 -34 64.5t-26 67.5q-4 14 -6 24.5t-2 20.5q0 20 11 42q9 18 24.5 25.5
t35.5 -3.5q19 -11 34.5 -31.5t28 -44.5t22.5 -48.5t18 -43.5q16 -38 32.5 -72t37.5 -69q14 -23 23.5 -40t23.5 -40q8 -12 20 -31.5t20 -31.5z" />
    <glyph glyph-name="percent" unicode="%" horiz-adv-x="648" 
d="M405 332q-13 -23 -22 -41t-22 -41q-19 -35 -34 -70t-29 -73q-8 -20 -16.5 -44.5t-20 -49t-26 -45.5t-33.5 -33q-20 -13 -36 -6t-26 25q-7 13 -9.5 23.5t-2.5 21.5q0 9 1.5 18.5t4.5 23.5q7 32 23.5 68t31.5 65q17 35 33 69.5t35 69.5q36 67 70.5 138t75.5 139
q12 20 24 39.5t26 33.5t31.5 20t39.5 0q23 -7 33 -20t10 -31q0 -24 -14 -53.5t-33.5 -61t-40.5 -63t-36 -57.5q-7 -13 -19 -33t-19 -32zM222 350q-25 -23 -54 -33t-60 -5q-61 11 -84 67q-14 33 -14 69t15 69q7 16 20 34.5t30 32.5t34 21q11 5 27 9.5t27 5.5q10 1 21 0.5
t20 -3.5q17 -7 33 -18.5t27 -28.5q14 -21 16 -49.5t0 -54.5q-4 -33 -19.5 -64t-38.5 -52zM172 500q-5 5 -12 7.5t-12 0.5q-15 -4 -27 -19t-10 -35q1 -8 3 -15t7 -12t11.5 -5.5t12.5 0.5q14 2 23 13.5t12 28.5q2 11 0.5 20t-8.5 16zM635 153q-4 -33 -19.5 -64t-38.5 -52
q-24 -23 -53.5 -33t-60.5 -5q-29 5 -50 21.5t-33 45.5q-15 33 -15 70q0 35 15 68q7 16 20 34.5t30 32.5t35 21q11 5 26.5 9.5t27.5 5.5q10 1 21 0.5t19 -3.5q18 -7 33.5 -18.5t26.5 -28.5q10 -15 14 -35t4 -40q0 -8 -0.5 -14.5t-1.5 -14.5zM527 187q-4 5 -11 7.5t-13 0.5
q-15 -4 -27 -19t-10 -35q2 -18 11 -27q5 -5 11 -5.5t12 0.5q14 2 23.5 13.5t11.5 28.5q2 11 0.5 20t-8.5 16z" />
    <glyph glyph-name="slash" unicode="/" horiz-adv-x="461" 
d="M330 397q-7 -13 -18.5 -33t-18.5 -32q-13 -23 -22 -41t-22 -41q-19 -35 -34.5 -70t-29.5 -73q-8 -20 -16.5 -44.5t-20 -49t-25.5 -45.5t-33 -33q-20 -13 -36 -6t-26 25q-13 25 -13 46q0 9 2 18.5t4 22.5q4 16 10.5 33t14 34.5t15.5 34t15 31.5q17 35 33.5 69.5t34.5 69.5
q37 67 71.5 138t74.5 139q12 20 24 39.5t26.5 33.5t31.5 20t39 0q23 -7 33 -20t10 -31q0 -24 -14 -53.5t-33.5 -61t-40.5 -63t-36 -57.5z" />
    <glyph glyph-name="bar" unicode="|" horiz-adv-x="215" 
d="M172 431q-1 -14 -2.5 -37.5t-2.5 -37.5q-1 -35 -2.5 -65.5t-1.5 -61.5t2 -61t5 -62q2 -23 5.5 -51.5t3.5 -57.5q0 -25 -4 -47.5t-15 -39.5q-13 -21 -33 -21q-15 0 -31 11q-21 15 -29 30.5t-15 44.5q-8 31 -9 71t-1 73q0 26 -0.5 51t-0.5 51q0 100 1 189t9 176l4 46
t8.5 42t19 32t35.5 17q22 4 36 -2t22 -19t11.5 -32t3.5 -42t-2.5 -49t-6 -52t-6.5 -50.5t-4 -45.5z" />
    <glyph glyph-name="numbersign" unicode="#" horiz-adv-x="618" 
d="M587 268q5 -15 9 -31t-4 -31q-6 -13 -19.5 -17.5t-26.5 -6.5q-14 -3 -28.5 -6t-28.5 -10t-14 -19.5t1 -25.5q2 -18 4.5 -37.5t-3.5 -37.5q-5 -19 -18.5 -27t-29.5 -8q-17 0 -34 8t-27 22q-9 12 -15 27t-8 30q-1 6 -1 12t-1 17q-1 4 -1.5 10t-3.5 8t-10 2t-15 -1.5
t-15.5 -4l-10.5 -3.5q-14 -7 -15 -17.5t0 -24.5q0 -12 2 -24.5t2 -25.5q0 -14 -3.5 -26.5t-14.5 -23.5q-18 -18 -42 -18q-19 0 -35.5 12t-21.5 33q-3 14 -4 29t-6 28q-7 16 -19.5 14.5t-25.5 -4.5q-10 -2 -18.5 -4.5t-17.5 -2.5q-17 0 -32 12q-12 10 -15 25t0 29
q4 20 15.5 32.5t27.5 21t33 15.5t32 16q11 6 13 16.5t-1 22.5q-4 14 -15.5 11t-22.5 -6q-8 -2 -15 -3t-15 -1q-20 0 -34.5 9.5t-16.5 35.5q-3 32 15 54.5t47 31.5q13 4 31 8.5t26 15.5q8 9 8 25.5t2 28.5q1 14 2.5 29.5t6 29.5t13 25.5t23.5 17.5t35 6t36 -8.5t18 -30.5
q2 -16 2 -25t2 -25q0 -7 -1 -20.5t5 -17.5q4 -2 12 -1.5t13 1.5q16 3 22.5 9t8.5 23t3 34t6 34t10 31.5t21 25.5q14 9 33.5 12.5t35.5 -1.5q13 -4 22.5 -14.5t12.5 -24.5q2 -12 1.5 -27t-2.5 -27q-2 -8 -4.5 -18.5t5.5 -17.5q5 -4 13 -2.5t13 1.5q17 0 30 -7t25 -19
q9 -10 14.5 -23.5t5.5 -27.5t-7 -26t-22 -17q-14 -5 -29 -7.5t-29 -7.5q-11 -3 -25.5 -8t-15.5 -18t3.5 -23t18.5 -9q14 0 27.5 2t27.5 -1q35 -8 44 -42zM343 295q1 7 2 17.5t-1 17.5q-4 9 -15.5 7t-17.5 -4q-8 -2 -20 -3.5t-17 -9.5q-4 -6 -3.5 -21t3.5 -22q2 -5 6.5 -6.5
t10 -0.5t11 2.5t9.5 2.5q12 3 21 4.5t11 15.5z" />
    <glyph glyph-name="at" unicode="@" horiz-adv-x="579" 
d="M563 425q3 -26 3 -55q0 -36 -5.5 -73t-19 -70.5t-35 -61t-53.5 -45.5q-53 -31 -107 11q-7 6 -12.5 7.5t-11 0t-12 -4t-13.5 -4.5q-14 -3 -30 -3q-17 0 -32 3q-20 4 -31.5 17.5t-18 31t-8.5 37t-2 35.5q0 44 10.5 87t36.5 79q9 12 23 23t30 18t33 8t32 -6q19 -10 25 -25
t6 -33q0 -13 -1.5 -26.5t-1.5 -25.5q0 -20 0.5 -39t2.5 -39q2 -17 8.5 -31t20.5 -28q10 -9 21.5 -1.5t21.5 22.5t17.5 31.5t9.5 24.5q5 17 4.5 34t-2.5 35q-2 29 -10 55.5t-24 51.5q-16 26 -39.5 43.5t-53.5 22.5q-25 4 -48.5 -2.5t-45.5 -19t-41.5 -29.5t-35.5 -33
q-19 -19 -31.5 -43.5t-19.5 -51.5t-9.5 -55t-1.5 -55q1 -26 7 -52t18.5 -47.5t32 -38t47.5 -23.5q17 -5 34 -2.5t34 -4.5q12 -5 25 -17t10 -28q-4 -23 -28.5 -31t-50.5 -8q-22 0 -35 3q-42 8 -78.5 29t-59.5 59q-26 42 -39 90t-13 98q0 77 31 148.5t93 121.5q45 35 100 59
t112 24q45 0 79.5 -19t68.5 -49q28 -25 43.5 -59.5t19.5 -70.5zM276 215q11 6 14.5 21.5t3.5 33.5q0 14 -1 27t0 22q0 6 0.5 14.5t-1.5 13.5q-3 11 -8 10t-9.5 -7t-8 -15t-4.5 -13q-2 -7 -5 -27.5t-3 -40.5t4.5 -33t17.5 -6z" />
    <glyph glyph-name="trademark" unicode="&#x2122;" horiz-adv-x="464" 
d="M188 603q-8 -5 -16.5 -4.5t-16.5 -4.5q-10 -5 -10.5 -10.5t-1.5 -17.5q-2 -20 -2.5 -41.5t-0.5 -42.5v-42v-26.5t1 -26.5q1 -9 1.5 -18.5t-0.5 -18.5q0 -10 -3 -17t-13 -9q-23 -5 -37 12q-11 13 -14 38.5t-1 60.5q1 11 1.5 24.5t0.5 27.5t-0.5 23t-0.5 20v10t-0.5 12
t-2 10t-5.5 3q-9 -2 -19 -4.5t-18 2.5q-7 3 -9.5 11.5t-2.5 17.5t3 16.5t7 9.5q2 2 5 2.5t6 2.5q8 2 16.5 5t14.5 5q8 4 16.5 7t17.5 6q12 4 25.5 8t26.5 5q12 0 24 -5.5t19 -14t5.5 -18.5t-16.5 -18zM437 491q4 -31 6 -58t2 -56q0 -11 -2 -19.5t-12 -13.5q-8 -5 -18.5 -6
t-18.5 3q-12 5 -15.5 16t-3.5 23q0 9 0.5 18t0.5 17v15.5t-0.5 23t-2.5 18t-6 0.5q-3 -4 -5.5 -19t-4.5 -32.5t-4 -33t-3 -19.5q-2 -9 -6 -16t-14 -10q-8 -3 -15.5 0.5t-12.5 9.5q-5 7 -6.5 21.5t-3 30t-3.5 29t-6 18.5q-5 6 -8 -6.5t-4.5 -32t-1.5 -41v-34.5
q0 -14 -6.5 -19.5t-15.5 -5.5q-10 0 -20 5.5t-15 14.5q-5 8 -7 17.5t-3 18.5q0 29 5.5 65.5t7.5 65.5q1 17 0.5 32.5t1.5 31.5q1 22 8.5 43.5t34.5 23.5q22 0 31 -18q4 -9 6.5 -14.5t3.5 -13.5q1 -9 3.5 -18.5t7 -15.5t9.5 -6.5t10 10.5q7 16 11.5 31.5t6.5 33.5q2 20 11 35
q5 8 15.5 12.5t20.5 1.5q24 -8 29 -26.5t5 -40.5q0 -32 2 -57.5t5 -52.5z" />
    <glyph glyph-name="period" unicode="." horiz-adv-x="203" 
d="M110 108q8 -1 15 -1.5t14 -3.5q3 -1 6 -2.5t5 -3.5q14 -12 19 -25q2 -8 5.5 -17.5t2.5 -17.5q-1 -9 -8.5 -17.5t-13.5 -13.5q-10 -8 -21 -14.5t-23 -9.5q-11 -3 -21.5 2t-20.5 10q-11 5 -21.5 12.5t-14.5 21.5q-3 12 -0.5 25t7.5 23q7 13 18.5 22t25.5 11q7 1 13 0.5
t13 -1.5z" />
    <glyph glyph-name="question" unicode="?" horiz-adv-x="428" 
d="M198 82q5 -11 6.5 -25t-2.5 -26q-7 -17 -23.5 -30t-34.5 -15q-10 -1 -18.5 2t-16.5 8q-18 10 -35 25q-10 11 -10 27q0 14 6.5 26.5t17.5 20.5q10 8 20.5 13t24.5 5q19 -1 38 -7.5t27 -23.5zM408 560q5 -19 5 -40.5t-5.5 -43t-15.5 -41.5t-25 -35q-15 -16 -30.5 -28.5
t-31.5 -23.5t-32.5 -22.5t-31.5 -24.5q-11 -9 -26.5 -26.5t-17.5 -31.5q-2 -16 -2.5 -28t-9.5 -22q-25 -26 -56 -26q-22 0 -39.5 13.5t-22.5 39.5q-3 15 1.5 31.5t13 32t19 29.5t21.5 25q23 24 49 43t54 39q11 8 27.5 20.5t21.5 25.5q7 16 -2.5 26.5t-24.5 12.5
q-17 2 -35 -2.5t-33.5 -13.5t-26 -22t-11.5 -28q-1 -11 -12 -20.5t-26 -15t-30 -6t-24 6.5q-14 11 -19 29.5t-3 37.5q0 9 6 23.5t11 23.5q17 26 40 41.5t50 29.5q35 17 75 28t82 11q16 0 34.5 -3.5t35 -11t29.5 -21t18 -32.5z" />
    <glyph glyph-name="comma" unicode="," horiz-adv-x="206" 
d="M118 113q11 -1 27.5 -5t25.5 -12q11 -10 13 -30t0 -34q-3 -32 -16 -56q-5 -11 -12.5 -24.5t-17 -25.5t-20.5 -21t-24 -11q-14 -2 -26 2.5t-21 13t-13.5 20t-2.5 25.5q3 17 9.5 33.5t8.5 33.5q1 9 0 18.5t-1 18.5q0 29 22 42.5t48 11.5z" />
    <glyph glyph-name="ellipsis" unicode="&#x2026;" horiz-adv-x="637" 
d="M178 72q3 -11 3.5 -21.5t-3.5 -20.5q-4 -11 -11 -18t-16 -13q-9 -7 -19.5 -11.5t-21.5 -7.5q-20 -6 -37 1q-15 6 -25 22t-10 33q-1 17 6.5 33.5t21.5 25.5q7 5 15 7t15 4q11 2 21.5 2h21.5q5 -1 9 -1.5t9 -2.5q8 -4 13.5 -13.5t7.5 -18.5zM340 108q19 -2 35 -8t24 -28
q3 -8 6 -17.5t2 -17.5q-1 -9 -8.5 -17.5t-13.5 -13.5q-22 -18 -41 -22t-45 10q-11 5 -21.5 12.5t-14.5 21.5q-3 12 -0.5 25t8.5 23q7 13 18 22t25 11q7 1 13.5 0.5t12.5 -1.5zM592 78q5 -12 7 -26t-3 -26q-6 -17 -23 -30t-35 -15q-10 -1 -18.5 2t-16.5 8q-10 6 -18 12
t-16 14q-11 11 -11 27q0 14 7 26.5t17 20.5t21 13t24 4q30 0 52 -15q8 -6 13 -15z" />
    <glyph glyph-name="quotedbl" unicode="&#x22;" horiz-adv-x="363" 
d="M153 631q8 -12 10.5 -26.5t2.5 -29.5q0 -23 -4.5 -46.5t-7.5 -43.5q-2 -14 -2.5 -29.5t-9.5 -26.5q-15 -19 -43 -19q-17 0 -32.5 8.5t-21.5 25.5q-5 14 -6 30.5t-3 31.5t-5.5 29t-5.5 29q-2 14 -0.5 32.5t9.5 29.5q10 14 27 20t34 7q16 1 32.5 -3.5t25.5 -18.5zM330 539
q-2 -10 -2 -19t-1 -19q0 -10 -1.5 -21t0.5 -21q-2 -10 -5 -19t-11 -16q-16 -16 -38 -16q-20 0 -37 11.5t-23 31.5q-6 19 -6.5 38.5t-2.5 38.5q-1 11 -1.5 22t-0.5 22q0 22 4 39q5 17 17 26.5t29 14.5q15 4 34.5 2t31.5 -14t17 -28.5t4 -33.5q-2 -10 -4 -19.5t-4 -19.5z" />
    <glyph glyph-name="quotedblleft" unicode="&#x201c;" horiz-adv-x="386" 
d="M219 442q-5 5 -8 13.5t-4.5 18t-1.5 19t1 16.5q3 32 16 59q5 11 12.5 25t17 27t20.5 22t24 11t25.5 -2.5t21.5 -13.5t13.5 -21.5t2.5 -26.5q-3 -18 -9.5 -35t-8.5 -35q-1 -10 0 -19.5t1 -19.5q0 -30 -22 -44.5t-48 -12.5q-11 2 -28 6.5t-25 12.5zM44 453q8 -17 22.5 -24
t31.5 -7q22 0 44 10q8 5 14.5 17t8.5 22q2 14 1.5 28.5t1.5 28.5q1 7 1.5 14t2.5 14t4 13t4 13q3 15 1 29t-13 25q-14 14 -29 15t-31 -7q-20 -10 -33 -28q-20 -23 -30.5 -56.5t-10.5 -62.5q0 -24 10 -44z" />
    <glyph glyph-name="quotedblright" unicode="&#x201d;" horiz-adv-x="398" 
d="M179 633q11 -11 13 -32t0 -35q-3 -32 -16 -59q-5 -11 -12.5 -25t-16.5 -27t-20.5 -22t-23.5 -11q-14 -2 -26.5 2.5t-21.5 13.5t-13 21.5t-2 26.5q2 18 8.5 34.5t8.5 35.5q1 10 0 19.5t-1 19.5q1 30 22.5 44t47.5 12q11 -1 28 -5.5t25 -12.5zM355 622q-8 17 -22.5 24
t-31.5 7q-24 0 -44 -11q-9 -5 -15 -16.5t-8 -22.5q-2 -14 -2 -28t-2 -28q-2 -15 -5 -27.5t-6 -26.5q-8 -32 12 -54q13 -14 28.5 -15t31.5 7q9 5 17.5 12.5t15.5 15.5q20 23 30.5 56.5t10.5 62.5q0 24 -10 44z" />
    <glyph glyph-name="dollar" unicode="$" horiz-adv-x="434" 
d="M358 18q-22 -22 -22 -48q0 -20 6 -40.5t6 -40.5q0 -11 -2.5 -20t-10.5 -17q-15 -16 -36 -16q-10 0 -19 4t-14 13q-6 10 -8.5 20.5t-4 21.5t-4 21.5t-7.5 19.5q-8 16 -21 21.5t-27 9.5q-75 11 -115 61.5t-40 119.5q0 36 22 59.5t56 23.5q17 0 29 -9.5t14 -30.5
q1 -16 8 -33.5t18.5 -29.5t26.5 -16.5t32 5.5q16 11 18.5 19.5t-2.5 26.5q-2 7 -10 16.5t-19 20t-23.5 21.5t-22.5 20q-23 20 -50.5 43.5t-50.5 42.5q-25 21 -43 42t-21 52q-3 33 12 71t39 66q7 10 14.5 18.5t13 17.5t9 18.5t2.5 23.5q-2 20 -10 41.5t-6 41.5q2 21 16.5 34
t32.5 21q26 10 38.5 -5t16.5 -38q2 -14 2.5 -34.5t8.5 -32.5q11 -14 31 -11q17 3 34.5 1t32.5 -6.5t26 -11t15 -12.5t9.5 -14t9 -18.5t4.5 -24.5t-3 -32q-5 -21 -7 -33.5t-3.5 -22.5t-2.5 -19.5t-4 -24.5q-3 -13 -19 -22.5t-31 -10.5q-24 1 -42.5 8.5t-26.5 28.5
q-4 11 -4 21.5t1 21.5q2 14 -2.5 21t-20.5 0q-40 -16 -40 -50q0 -14 9.5 -30t29.5 -31q17 -13 30 -22.5t24.5 -18.5t23.5 -18.5t27 -21.5q26 -22 48 -42t33 -36q23 -32 28 -48t6 -32q1 -39 -16 -74t-52 -61z" />
    <glyph glyph-name="asciicircum" unicode="^" horiz-adv-x="284" 
d="M57 552q9 15 16 31t12 29q8 17 23 29.5t37 12.5q19 1 29.5 -13t21.5 -27q23 -27 46 -52q11 -12 19 -27.5t-4 -30.5q-11 -15 -29 -20.5t-34 3.5q-6 4 -10.5 10t-9.5 11q-5 4 -11 9.5t-12 6.5t-12 -3.5t-12 -11t-10.5 -13.5t-7.5 -11q-4 -6 -8 -13.5t-8.5 -13.5t-11 -10
t-15.5 -3q-16 2 -29 15t-13 27q1 20 12.5 34t20.5 31z" />
    <glyph glyph-name="parenleft" unicode="(" horiz-adv-x="317" 
d="M246 609q-20 -32 -37.5 -68.5t-29.5 -75t-18.5 -77.5t-4.5 -76q2 -42 5.5 -80.5t11.5 -76t21.5 -74t35.5 -73.5q7 -12 14.5 -24t13 -25t7.5 -26t-4 -28q-6 -16 -19 -23t-28 -7q-24 0 -45 13q-30 19 -49.5 46t-32 57.5t-21 63t-16.5 62.5q-13 49 -18.5 96.5t-5.5 95.5
q0 61 9 124q5 34 17 77.5t31 85t45 76.5t59 54q21 13 50 13q17 0 32.5 -7t23.5 -22q7 -14 3.5 -27t-12.5 -25.5t-20 -24.5t-18 -24z" />
    <glyph glyph-name="parenright" unicode=")" horiz-adv-x="327" 
d="M75 4q20 33 37.5 69t29.5 74.5t18 77t5 76.5q-2 42 -5.5 81t-11.5 76.5t-21.5 74t-35.5 73.5q-7 12 -14.5 24t-13 24.5t-7.5 26t4 27.5q6 17 19 24t28 7q25 0 45 -14q30 -20 49.5 -46.5t32 -57t21 -63t16.5 -62.5q13 -49 18.5 -96t5.5 -95q0 -61 -9 -124q-5 -35 -17 -78
t-31 -84.5t-45 -77t-59 -54.5q-11 -5 -23.5 -8.5t-26.5 -3.5q-17 0 -32.5 6.5t-23.5 21.5q-7 14 -3.5 27.5t12.5 26t20 24.5t18 23z" />
    <glyph glyph-name="bracketleft" unicode="[" horiz-adv-x="324" 
d="M157 415q-3 -51 -3 -95q0 -17 0.5 -34.5t1.5 -37.5q0 -13 0.5 -31.5t-0.5 -31.5q-1 -22 0.5 -43.5t1.5 -44.5q0 -20 2 -48t4 -48q1 -10 12.5 -8.5t26.5 6t31.5 9.5t27.5 2q13 -3 21.5 -11.5t13.5 -19.5t7 -22.5t1 -21.5q-1 -11 -10 -18.5t-21.5 -12.5t-25 -9t-20.5 -8
q-20 -11 -40 -20.5t-42 -20.5q-20 -9 -39.5 -16t-41.5 4q-17 9 -22.5 29.5t-7.5 37.5q-4 22 -1 45.5t5 46.5q1 12 1 23.5v23.5v50v30.5t1 30.5q1 14 1 27v27q0 31 -1 62l-2 62q-2 40 -1.5 80t-1.5 80q-2 29 -2.5 57t-2.5 56q-2 11 -3 23.5t-1 25.5q0 12 1.5 23.5t6.5 20.5
q10 21 28.5 28t37.5 16q20 8 39 16.5t38 16.5q15 6 29 10t27 4q19 0 34.5 -10t27.5 -33q10 -22 4 -36t-21 -23.5t-33.5 -15.5t-31.5 -11t-22 -9.5t-14.5 -10.5t-8.5 -16t-4 -27q-2 -18 -3 -38.5t-3 -39.5q-1 -28 -1 -50.5t-1 -50.5z" />
    <glyph glyph-name="bracketright" unicode="]" horiz-adv-x="333" 
d="M173 198q3 57 3 107v29t-1 32q-1 13 -1.5 31t0.5 31q1 23 -0.5 44.5t-1.5 44.5q0 20 -2 48t-4 48q-1 9 -12.5 8t-26.5 -6t-31.5 -10t-27.5 -2q-12 3 -20.5 11.5t-14 19.5t-7.5 23t-1 22q1 11 10 18t21.5 12.5t25 9.5t20.5 8q20 11 40 20.5t42 19.5q20 10 39.5 17t41.5 -4
q18 -9 23 -30t8 -38q3 -21 0 -44.5t-5 -46.5q-1 -12 -1 -23.5v-23.5v-50v-31t-1 -31q-1 -14 -1 -27v-27q0 -31 1 -62t2 -61q2 -41 1.5 -80.5t1.5 -80.5q2 -28 2.5 -56.5t2.5 -56.5q2 -11 3 -23.5t1 -26.5q0 -26 -7 -43q-11 -21 -29.5 -28t-37.5 -15q-20 -9 -39 -17.5
t-38 -16.5q-15 -6 -29 -10t-27 -4q-19 0 -34.5 10t-26.5 33q-11 22 -4.5 36t21 23.5t33 15.5t31.5 12q13 5 22 9t14.5 10t8.5 16t5 27q2 19 2.5 39t2.5 40q1 27 1 50t1 50z" />
    <glyph glyph-name="less" unicode="&#x3c;" horiz-adv-x="431" 
d="M112 313q12 10 28 24.5t32 29.5t30.5 30.5t23.5 29.5q14 21 29 42.5t38 35.5q20 11 43 11q17 0 30 -7.5t18 -24.5q4 -15 1 -28t-10.5 -25t-17.5 -23.5t-19 -21.5q-9 -11 -23 -24t-28 -26.5t-28 -26.5t-23 -24q-12 -13 -11.5 -23t8.5 -17.5t20.5 -12t25.5 -6.5
q12 -2 26 -3t27.5 -2.5t26.5 -5t24 -9.5q12 -8 17.5 -19.5t5.5 -25.5q0 -11 -3.5 -21.5t-8.5 -18.5q-8 -14 -22 -19t-30 -5q-13 0 -25 2t-23 5q-31 8 -61.5 17.5t-61.5 17.5q-16 4 -42 7.5t-50.5 11t-42 21t-17.5 37.5q0 13 6 28q5 13 15.5 22.5t23 16.5t25.5 14t23 16z" />
    <glyph glyph-name="greater" unicode="&#x3e;" horiz-adv-x="428" 
d="M319 301q-12 -11 -28 -25t-32.5 -29.5t-31 -31t-23.5 -28.5q-14 -22 -29 -43.5t-38 -35.5q-19 -11 -42 -11q-17 0 -30.5 7.5t-18.5 24.5q-5 15 -1.5 28t11 25t17.5 23t19 22l23.5 23.5t28 27t28 26.5t22.5 24q12 13 11.5 23t-8.5 17.5t-20.5 12.5t-24.5 7t-26 3t-28 2.5
t-27.5 4.5t-23.5 10q-12 8 -17.5 19.5t-5.5 25.5q0 11 3.5 21.5t8.5 18.5q9 14 22.5 18.5t29.5 4.5q13 0 25 -2t23 -5q31 -8 61.5 -17t61.5 -17q16 -4 42 -8t50.5 -11.5t42 -20.5t17.5 -37q0 -13 -6 -29q-5 -13 -15.5 -22t-23 -16.5t-25 -14t-22.5 -15.5z" />
    <glyph glyph-name="asciitilde" unicode="~" 
d="M97 388q15 9 36 9q14 0 26 -4.5t20 -15.5q5 -6 13 -14t17 -14.5t19 -11t18 -3.5q17 2 28 14.5t13 31.5q2 14 1 27t9 24q12 13 27.5 14t28.5 -11q17 -17 24 -41.5t8 -48.5q2 -32 -12.5 -56t-35.5 -42q-18 -17 -41.5 -28t-49.5 -6q-18 3 -34 9t-30 20q-11 10 -20 15t-22 -6
q-11 -10 -13 -25.5t-4 -30.5q-2 -14 -11 -20t-20 -6q-12 0 -24 6t-20 16q-10 13 -14 27.5t-4 29.5t3 29t8 28q5 11 11 22.5t12 22.5q11 26 33 39z" />
    <glyph glyph-name="grave" unicode="`" horiz-adv-x="262" 
d="M106 528q-11 7 -23 14t-24 16q-15 11 -26.5 28t-2.5 37q5 11 17 23.5t24 10.5q8 -1 19.5 -9.5t16.5 -13.5q10 -8 17.5 -15t18.5 -16q15 -12 31.5 -24.5t33.5 -20.5q11 -5 20 -13t14 -21q6 -15 -1.5 -25.5t-21.5 -13.5q-15 -5 -32 -1t-30 13q-25 17 -51 31z" />
    <glyph glyph-name="cent" unicode="&#xa2;" horiz-adv-x="366" 
d="M312 160q-11 -11 -23 -19.5t-25 -16.5q-12 -11 -18 -22.5t-6 -31.5q0 -12 3.5 -26t3.5 -28q0 -19 -12 -30q-15 -12 -32 -12q-14 0 -25.5 7t-18.5 20q-6 13 -6.5 27.5t-1 27.5t-4.5 24.5t-17 19.5q-38 9 -63 39q-24 27 -35 58.5t-11 63.5q0 18 3 36.5t10 35.5q10 28 28 57
q5 14 10.5 26t9.5 24t5 25t-3 28q-5 21 -11 42t-4 44q1 23 15.5 42t40.5 18q12 0 20 -6.5t13.5 -16t8 -20.5t4.5 -20q2 -10 1.5 -23.5t4.5 -21.5q8 -14 24.5 -12.5t27.5 1.5q14 2 27 0t21 -10q14 -13 18.5 -33.5t7.5 -38.5q3 -12 3 -29q0 -14 -2.5 -28.5t-8.5 -25.5
q-3 -7 -10 -14.5t-15.5 -13t-17.5 -9t-16 -2.5q-21 2 -26.5 10t-7.5 25q-2 10 -6.5 13.5t-9.5 2t-10.5 -7t-9.5 -12.5q-9 -15 -16 -37.5t-7 -43.5q0 -20 8.5 -34.5t28.5 -16.5q16 -2 32 3.5t30 13.5t28 17.5t30 10.5q14 1 26.5 -6.5t16.5 -21.5q4 -20 -6.5 -39t-24.5 -33z
" />
    <glyph glyph-name="Euro" unicode="&#x20ac;" horiz-adv-x="500" 
d="M274 390q4 -5 12 -5.5t17 1.5t17 4.5t13 4.5q17 5 29.5 0t15.5 -22q2 -15 -1.5 -30t-18.5 -22q-14 -6 -31.5 -8t-32.5 -7q-7 -2 -15 -3t-15.5 -3.5t-13 -7t-8.5 -12.5q-2 -5 -2.5 -8.5t-0.5 -7.5q2 -14 28 -11q14 2 35.5 7.5t35.5 8.5q17 4 24.5 -7t7.5 -26q0 -11 -3 -21
t-10 -16q-8 -8 -20.5 -11.5t-25.5 -5.5l-26 -4t-23 -6q-3 -14 13.5 -26.5t34.5 -15.5q16 0 32 9t31 17t30 10.5t29 -8.5q11 -10 14.5 -24t1.5 -28t-6.5 -31t-13.5 -28q-11 -14 -27 -26.5t-34.5 -21.5t-38 -14t-37.5 -5t-38 5t-36 14q-9 4 -18.5 12.5t-18 18.5t-15.5 21
t-11 20q-3 7 -5.5 16t-5 17.5t-6.5 15.5t-10 10q-6 4 -13.5 2.5t-15 -4.5t-15 -5.5t-14.5 -2.5q-18 0 -24 16t-5 32q0 19 11.5 26.5t25 12t24 11t9.5 24.5q-1 12 -5.5 15.5t-11 3t-15 -4t-17.5 -5.5q-17 -3 -29 7t-14 31q-2 18 9 27.5t26.5 15.5t32 11t25.5 14q11 11 14 28
t7 31q9 29 21 56.5t28 50.5q14 22 34 43.5t43.5 38t50 24.5t54.5 3q26 -5 49.5 -16.5t37.5 -32.5q19 -29 19 -58q0 -13 -4 -25.5t-15 -23.5t-26 -15.5t-29 3.5q-13 8 -26.5 15.5t-28.5 5.5q-10 -1 -18.5 -7t-15.5 -14t-13 -17t-10 -17q-5 -9 -10.5 -19.5t1.5 -20.5z" />
    <glyph glyph-name="sterling" unicode="&#xa3;" horiz-adv-x="461" 
d="M438 118q-3 -20 -8.5 -33.5t-24.5 -20.5q-16 -6 -32.5 -4.5t-32.5 -0.5q-25 -4 -46.5 -9t-46.5 -19q-11 -6 -22.5 -15t-21.5 -18q-8 -8 -17.5 -15.5t-20.5 -11.5q-20 -8 -46 -2.5t-41 19.5q-16 14 -26 36t-10 44q0 23 11 46t19 45q3 10 8 23.5t-6 19.5q-7 4 -15 4.5
t-15 7.5q-10 9 -14.5 23t-4.5 28q0 22 10 39q7 11 16.5 14.5t20.5 7.5q9 2 12 7.5t2.5 11.5t-3.5 13t-5 12q-15 31 -25.5 62t-8.5 66q2 48 25 83t68 53q26 10 52 11.5t52 -0.5q15 -2 31 -5.5t30 -10.5q19 -10 33.5 -22t21.5 -34q7 -21 7 -46q0 -38 -33 -57q-16 -9 -28 -4
t-25 15q-13 11 -25 15.5t-29 -1.5q-19 -7 -25 -23.5t-3 -35.5q1 -10 3.5 -24t8 -26.5t14 -21t20.5 -6.5q12 4 24.5 6.5t24.5 4.5t24.5 4t23.5 -6q10 -8 16 -23.5t8 -28.5q2 -14 -2 -26.5t-16 -20.5q-10 -6 -23.5 -8t-24.5 -4q-14 -4 -27.5 -7.5t-25.5 -11.5
q-8 -5 -11.5 -11.5t-5.5 -14.5q-2 -5 -3.5 -13t-0.5 -15.5t4.5 -13.5t11.5 -7q6 -1 14 1.5t16 6.5t16 7.5t14 5.5q15 4 32.5 6t32.5 0q14 -2 28.5 -6.5t25.5 -12.5t17 -20.5t3 -31.5z" />
    <glyph glyph-name="quotesingle" unicode="'" horiz-adv-x="199" 
d="M159 631q8 -12 10.5 -26.5t2.5 -29.5q0 -23 -4.5 -46.5t-7.5 -43.5q-2 -14 -2.5 -29.5t-9.5 -26.5q-15 -19 -43 -19q-17 0 -32.5 8.5t-21.5 25.5q-5 14 -6 30.5t-3 31.5t-5.5 29t-5.5 29q-2 14 -0.5 32.5t9.5 29.5q10 14 27 20t34 7q16 1 32.5 -3.5t25.5 -18.5z" />
    <glyph glyph-name="A" unicode="A" horiz-adv-x="420" 
d="M371 433q15 -67 23 -146.5t8 -151.5q0 -29 -9.5 -55t-41.5 -40q-9 -4 -20 -6.5t-22 -2.5q-21 0 -33 11q-6 5 -8 15t-2 23q0 8 0.5 17t0.5 17v13t-1 16t-2 15t-3 10q-4 7 -16.5 5t-20.5 -4q-14 -2 -32 -10.5t-28 -17.5t-10 -30q0 -17 3.5 -36.5t3.5 -38.5q0 -15 -4 -27.5
t-16 -20.5q-13 -9 -26 -13t-25 -4q-25 0 -44 15.5t-25 44.5q-2 11 -3 23.5t-1 26.5q0 21 1.5 42t3.5 39q2 34 6 66.5t10 65.5q8 48 23.5 97.5t32.5 95.5q13 37 31 69t50 58q17 13 34 21t39 7q23 -1 36 -12t24 -28q23 -36 38.5 -82t24.5 -87zM240 318q3 3 4 16.5t0 30.5
t-3.5 34.5t-4.5 28.5q-4 14 -12.5 17.5t-16.5 -17.5q-7 -18 -12.5 -33t-9.5 -34q-1 -6 -4 -17t-4.5 -22t0 -19t7.5 -8q5 0 25 6.5t31 16.5z" />
    <glyph glyph-name="B" unicode="B" horiz-adv-x="426" 
d="M411 249q4 -16 4 -36q0 -51 -31 -101q-25 -42 -66 -74.5t-88 -44.5q-22 -5 -46.5 -9t-48.5 -4q-15 0 -33 3t-34 10.5t-27.5 20t-14.5 31.5q-2 12 -3 22.5t-1 20.5q0 35 4.5 72t9.5 75q1 26 2 43.5t0 39.5t-4 43l-6 42q-2 11 -3 22.5t-1 22.5q0 30 10 59.5t38 54.5
q18 15 39.5 28.5t45.5 23t48.5 15t47.5 5.5q26 0 47.5 -7.5t37.5 -23.5q32 -32 32 -81q0 -15 -3.5 -30.5t-8.5 -30.5q-7 -17 -14 -33t-16 -33q-3 -7 -7.5 -14t-6.5 -13q-2 -8 0.5 -11t8.5 -6q13 -6 23 -12.5t21 -16.5q18 -17 28.5 -34t15.5 -39zM160 444q-2 -17 -1 -32.5
t2 -32.5q1 -9 6.5 -14t14.5 6q11 12 18 26t15 28q4 8 8 21t4 25t-6.5 18.5t-23.5 -0.5q-17 -6 -26 -18.5t-11 -26.5zM267 165q11 15 11 33q0 22 -15 37q-11 12 -30 12q-23 0 -46 -15q-10 -6 -15 -15.5t-7.5 -21t-3 -23.5t-0.5 -24q0 -10 2 -17.5t8 -9.5q8 -2 24 1.5t24 6.5
q10 5 25 15t23 21z" />
    <glyph glyph-name="C" unicode="C" horiz-adv-x="405" 
d="M373 527q1 -22 0 -43.5t-1 -43.5q0 -9 -0.5 -18.5t0.5 -18.5t3 -18.5t-2 -17.5q-7 -16 -24 -24q-14 -7 -30 -7q-22 0 -39 13.5t-22 36.5q-4 14 -4 28.5t1 28.5q0 16 -4.5 26t-20.5 -6q-11 -11 -20.5 -29t-15.5 -32q-9 -20 -17.5 -41t-13.5 -43q-3 -16 -5.5 -32.5
t-2.5 -33.5q0 -21 4 -41t14 -38q24 -45 57 -45q27 0 50 29q8 10 15.5 20.5t16.5 18t22 10t31 -3.5q16 -5 22.5 -17t6.5 -28q0 -13 -3.5 -26.5t-8.5 -25.5q-17 -40 -47.5 -73.5t-71.5 -47.5q-26 -8 -54 -8q-23 0 -46 5t-40 15q-35 22 -56.5 59t-32.5 76q-6 23 -9 48.5
t-3 51.5q0 66 17 126q18 60 44 110t69 96q12 13 28 26.5t34 24t37.5 17.5t38.5 7q34 0 59 -26q17 -20 20.5 -40t3.5 -45z" />
    <glyph glyph-name="D" unicode="D" horiz-adv-x="411" 
d="M382 585q11 -24 15.5 -52t4.5 -58q0 -48 -10 -94.5t-27 -82.5q-9 -19 -16.5 -36t-15.5 -34t-17.5 -36t-22.5 -41q-21 -38 -45 -69.5t-53 -61.5q-9 -9 -20 -18.5t-23.5 -17.5t-25.5 -13t-26 -5q-12 0 -23.5 5.5t-21.5 19.5q-11 16 -17.5 31.5t-4.5 34.5q1 11 1.5 20.5
t1.5 20.5q1 14 2 25.5t2 25.5q2 16 3 37t0 38q-1 32 -3 63t-7 63t-11.5 67t0.5 69q4 30 20.5 50t38.5 34.5t47 25.5t48 23q54 28 103 28q34 0 61.5 -15t41.5 -47zM247 357q7 28 14.5 55t5.5 56q-1 14 -5 25t-24 7q-15 -3 -28 -9t-26 -13q-14 -7 -23 -14t-8 -22
q0 -14 1.5 -27t3.5 -27q2 -19 3 -34t1 -29q0 -22 -0.5 -45.5t1.5 -46.5q1 -7 3 -12.5t10 -0.5q8 7 18.5 22.5t14.5 24.5q8 17 13.5 28l10 20t8 18.5t6.5 23.5z" />
    <glyph glyph-name="E" unicode="E" horiz-adv-x="358" 
d="M157 389q2 -9 5 -9t10 4q22 12 45 21.5t46 14.5q27 7 40.5 -10.5t15.5 -46.5q0 -12 -2 -23.5t-7 -22.5q-8 -14 -17 -16t-22 -7q-23 -7 -45 -15t-44 -23q-10 -6 -18 -11.5t-11 -19.5q-2 -11 -1.5 -19t0.5 -18q1 -10 2.5 -19t4.5 -15t8.5 -8t15.5 2q13 6 26.5 12.5t28 11.5
t29 6.5t29.5 -2.5q9 -3 17.5 -10t15 -16.5t11 -20.5t4.5 -22q0 -17 -12 -29q-11 -10 -26.5 -16t-28.5 -11l-30 -12t-29 -17q-15 -11 -29 -22.5t-28 -23.5q-25 -19 -55 -9q-29 11 -47.5 34t-23.5 52t-6.5 59t-1.5 60q0 32 0.5 56t1 42.5t1 33.5t0.5 29q0 13 0.5 29.5
t1.5 29.5q2 26 3 47t3 47q1 13 4.5 28.5t8.5 26.5q9 17 20.5 28t24.5 18.5t26.5 13t26.5 13.5q29 17 64.5 27.5t69.5 8.5q15 -1 30.5 -7t26.5 -16.5t16 -25.5t0 -33q-4 -15 -15.5 -22.5t-26 -11.5t-29.5 -6t-27 -5q-12 -4 -25.5 -7.5t-25.5 -9t-22 -14.5t-16 -22
q-8 -17 -12 -40.5t0 -40.5z" />
    <glyph glyph-name="F" unicode="F" horiz-adv-x="361" 
d="M26 209q-3 57 -2 110t8 104l4 42t5 42q4 20 14 35.5t24.5 27t31 20.5t32.5 17q34 16 61.5 23t63.5 11q29 2 53 -14t27 -51q2 -16 0.5 -29t-11.5 -25q-11 -14 -28.5 -16t-31.5 -3q-18 -2 -40.5 -10.5t-40.5 -18.5q-12 -8 -22 -16.5t-13 -24.5t-6 -33.5t-4 -33.5
q0 -17 6 -23.5t16 -6.5q16 0 36 11t33 16q13 6 28 12t29 5q11 0 20 -10.5t13 -21.5q6 -15 6 -35q0 -23 -10 -44t-31 -26q-29 -7 -59.5 -12.5t-57.5 -18.5q-14 -8 -21 -16t-8 -28q0 -17 2.5 -35t6.5 -35l4.5 -27t2.5 -29q0 -22 -8 -40.5t-31 -26.5q-16 -5 -30.5 -1t-26 14
t-20 24t-12.5 29q-10 39 -10.5 83t-2.5 85z" />
    <glyph glyph-name="G" unicode="G" horiz-adv-x="443" 
d="M363 597q10 -16 12.5 -34.5t0.5 -36.5t-1.5 -35t-2 -33t-10 -31t-23.5 -29q-14 -11 -36 -11q-16 0 -29 8q-8 6 -10.5 14t-3.5 16t-1 16.5t-4 15.5q-6 11 -14 8.5t-17 -12.5t-18.5 -26t-17 -32t-12.5 -29t-6 -17q-5 -22 -10.5 -50.5t-5.5 -57.5q0 -26 6 -48t22 -38
q11 -11 24 -16t26 -5q20 0 36 11t24 33q6 19 0.5 26.5t-28.5 -0.5q-14 -5 -30 -5t-27 15q-11 14 -11 31q0 13 5.5 25.5t14 23t19 18.5t21.5 12q23 8 44 13t39 5q41 0 64 -24q12 -14 20 -34.5t8 -50.5q0 -21 -5 -48t-16 -59q-10 -28 -29 -55t-43 -49q-26 -22 -64.5 -35
t-73.5 -13q-70 0 -117 55q-35 38 -48 90t-13 105q0 12 0.5 24t1.5 24q7 75 34.5 144.5t77.5 126.5q15 17 33.5 35t40 32.5t45.5 22.5t48 5q18 -2 34 -14t26 -27z" />
    <glyph glyph-name="H" unicode="H" horiz-adv-x="411" 
d="M375 192q2 -17 5.5 -38t3.5 -43q0 -18 -4 -34.5t-16 -29.5q-14 -15 -35 -15q-16 0 -32 8q-23 11 -31 22.5t-16 32.5q-5 14 -7 30t-3 33v17t-0.5 24.5t-2.5 22.5t-8 12q-7 2 -23 -5t-23 -11q-11 -7 -13.5 -16.5t-4.5 -20.5q-1 -26 -1.5 -50.5t2.5 -48.5q2 -17 3.5 -34.5
t0.5 -34.5q-1 -13 -4.5 -20.5t-16.5 -15.5t-31 -8q-24 0 -43 12q-18 10 -28.5 27t-15 36t-5.5 39t-1 37q0 33 2.5 66.5t5.5 67.5q1 20 2 37.5t0 37.5q-2 38 -4 76.5t-2 76.5q0 13 0.5 25.5t3.5 22.5q9 32 36.5 50t69.5 21q9 0 18 -0.5t15 -7.5q8 -10 10 -26q2 -12 0 -24
t-3 -24q-2 -14 -4 -32t-4 -37t-3 -36t1 -28q2 -17 12.5 -14.5t23.5 6.5q15 5 21.5 12.5t8.5 21.5q2 13 3 25.5t3 25.5q4 20 4.5 40t3.5 40q2 17 4.5 33.5t9 30.5t20 24t37.5 13q46 5 61.5 -15.5t15.5 -54.5q0 -17 -2.5 -36t-6 -38t-7 -37.5t-4.5 -33.5q-1 -10 -3 -27t-3 -27
q-1 -20 -1.5 -34.5t-1.5 -34.5q-2 -29 0 -57t7 -57z" />
    <glyph glyph-name="I" unicode="I" horiz-adv-x="205" 
d="M165 398q-3 -36 -5 -65.5t-3 -57.5q-2 -30 0 -58t6 -57q2 -17 5.5 -38t3.5 -43q0 -18 -4 -34.5t-15 -28.5q-13 -16 -33 -16q-8 0 -15.5 2.5t-15.5 6.5q-21 11 -28.5 22t-15.5 32q-8 23 -9 52.5t-1 53.5q0 33 -1 60t1 53q3 56 2.5 114t6.5 116q2 17 4 33.5t8.5 30.5
t19 23.5t35.5 12.5q43 5 58 -15.5t15 -54.5t-8.5 -73.5t-10.5 -70.5z" />
    <glyph glyph-name="J" unicode="J" horiz-adv-x="380" 
d="M355 336q1 -26 4 -50.5t5 -47t2.5 -44t-2.5 -42.5q-6 -43 -25.5 -75t-48.5 -53.5t-65 -32t-73 -8.5q-14 1 -30.5 4.5t-32.5 10.5t-29.5 17t-22.5 24q-10 17 -14 38.5t-5 40.5q-2 29 5 53.5t30 41.5q11 8 26.5 13.5t32.5 5.5q28 0 43 -16q6 -7 8 -13.5t2 -13.5
q0 -17 -5 -33t3 -31q3 -6 9.5 -6.5t13.5 2t14 7.5t11 10q14 17 20.5 43.5t4.5 58.5q-1 24 -2.5 42.5t-4 35.5t-4.5 35.5t-5 42.5q-4 32 -12 67.5t-8 69.5q0 20 4 37.5t15 32.5q8 13 25.5 20.5t35.5 7.5q26 0 40 -15q18 -21 21 -50q2 -21 3.5 -36.5t1.5 -35.5q0 -42 3.5 -81
t5.5 -77z" />
    <glyph glyph-name="K" unicode="K" horiz-adv-x="427" 
d="M420 127q0 -17 -10 -30.5t-24 -21.5t-30 -8.5t-29 10.5q-26 23 -56 46t-62 38q-33 16 -41.5 9.5t-8.5 -36.5q0 -29 3 -50.5t5 -50.5q1 -14 -1.5 -26.5t-13.5 -21.5q-15 -12 -34 -12q-20 0 -39 12t-29 29q-10 18 -12 38l-4 40q-4 29 -2.5 57.5t3.5 55.5q3 54 3 110
q0 31 -1 61.5t-3 61.5q-1 13 -2 26.5t-1 26.5q0 33 11.5 61.5t50.5 45.5q14 6 32 9t33 -2t19 -19.5t3 -26.5q-2 -38 -6.5 -72.5t-4.5 -69.5q0 -11 3 -12.5t7.5 2t9.5 10.5t8 12q6 12 12 24.5t12 25.5q28 58 66 110q7 10 18.5 21t25.5 19t29.5 10.5t29.5 -5.5
q15 -8 21.5 -19.5t6.5 -24.5q0 -15 -2 -32t-13 -28q-19 -21 -36.5 -49t-34.5 -55q-14 -23 -28 -54.5t-14 -58.5q0 -17 2 -25.5t12 -18.5l20.5 -20.5t20.5 -19.5q12 -11 25 -22t24 -23.5t18.5 -26.5t7.5 -30z" />
    <glyph glyph-name="L" unicode="L" horiz-adv-x="368" 
d="M38 384q2 35 4.5 69t-0.5 69q-2 15 -1 31.5t6 31.5q5 14 8.5 23.5t14.5 17.5q14 10 39 10q15 0 30.5 -4.5t27.5 -12t19 -18t6 -23.5q-5 -42 -13.5 -85.5t-13.5 -87.5q-3 -33 -5.5 -67t-2.5 -63q0 -6 0.5 -23t2 -36t4.5 -34.5t9 -18.5q7 -3 17.5 0t16.5 5q8 3 13 5.5
t10 4.5t10.5 3.5t13.5 2.5q38 5 65.5 -7t40.5 -50q7 -21 -1.5 -32.5t-24.5 -18.5t-35.5 -11.5t-33.5 -10.5q-11 -5 -19.5 -8.5t-15.5 -7t-14.5 -7.5t-17.5 -11q-9 -6 -15 -12.5t-12 -12t-13.5 -9.5t-18.5 -7q-17 -4 -34.5 -1.5t-32.5 10.5t-27 20.5t-18 27.5
q-7 18 -3.5 35.5t5.5 34.5q6 49 6 101q0 40 0.5 88.5t2.5 88.5z" />
    <glyph glyph-name="M" unicode="M" horiz-adv-x="523" 
d="M45 324q1 16 1 32v32v31.5t2 32.5q2 21 5.5 44t12.5 42t25.5 32t43.5 14q20 2 37 -7t25 -27t13 -30t7 -27q1 -12 4.5 -26.5t8.5 -26.5t11.5 -20t13.5 -8q8 0 16 12t14.5 28t10.5 31t6 21q4 15 6 25t5 34q2 19 6.5 36.5t14.5 33.5q11 17 32 25t40 3q24 -8 38 -21.5
t21 -31.5t9 -38.5t2 -42.5q0 -63 3 -114t10 -105q7 -63 12 -117t5 -112q0 -20 -5 -37.5t-25 -28.5q-16 -8 -36.5 -11t-36.5 5q-24 11 -31 32.5t-7 46.5q0 27 1 51t1 47q0 16 -0.5 35t-2 33.5t-5.5 20.5t-10 -4q-5 -8 -10.5 -38t-10 -64.5t-8 -65t-5.5 -39.5
q-4 -19 -12 -32.5t-28 -20.5q-17 -5 -32.5 1.5t-23.5 19.5q-9 13 -13 42.5t-6.5 61t-6.5 58.5t-13 36t-14 -8t-7.5 -46.5t-3.5 -65.5t-1 -67v-41q0 -26 -13.5 -38t-32.5 -12q-20 0 -39.5 11t-30.5 28q-10 17 -14 35.5t-4 37.5q-1 28 2.5 62t8 69t9 68.5t5.5 62.5z" />
    <glyph glyph-name="N" unicode="N" horiz-adv-x="447" 
d="M194 484q5 -16 8.5 -29t8 -25t10.5 -25t15 -28q3 -5 7 -12t8 -11.5t8 -4t7 9.5q5 14 5.5 27.5t0.5 29.5t-0.5 28t-0.5 23t-0.5 23t-0.5 28q0 15 1 31.5t5 32t12.5 29.5t22.5 25q14 10 31 13.5t34 -1.5q18 -5 25 -17t11 -27q4 -17 1 -31.5t-7 -31.5t-4.5 -36.5t-1.5 -37.5
q-1 -12 -1 -24.5v-25.5q0 -35 1.5 -68.5t3.5 -68.5q2 -40 8 -80.5t17 -78.5q4 -14 7 -29.5t-5 -29.5q-11 -18 -33 -25t-44 -6q-20 1 -36 9.5t-29 21.5t-23 28t-19 29q-8 12 -16.5 24.5t-16.5 25.5q-5 8 -14.5 21.5t-20.5 18.5q-6 2 -8.5 -6t-3.5 -20t-1 -25v-21
q-1 -23 2 -45.5t7 -45.5q2 -8 3.5 -17.5t1.5 -19.5q0 -19 -9 -31q-7 -8 -18 -11.5t-23 -3.5q-26 0 -44 10q-28 16 -39 40.5t-15 51.5q-2 12 -3 24t-1 25q0 20 1.5 40.5t2.5 40.5q2 42 8.5 81t6.5 79q0 30 -6 60q-5 20 -9.5 39.5t-4.5 39.5q0 25 13 48q6 10 18 22t26.5 20.5
t30 11.5t29.5 -5q16 -9 24 -21.5t12.5 -27.5t7 -30t6.5 -28z" />
    <glyph glyph-name="O" unicode="O" horiz-adv-x="405" 
d="M381 426q3 -32 3.5 -64t0.5 -68q0 -98 -43 -198q-15 -33 -39.5 -57.5t-56.5 -44.5q-21 -13 -51.5 -19.5t-59.5 1.5q-30 9 -49.5 32.5t-32.5 54.5t-19.5 64.5t-10.5 62.5q-2 18 -3 35t-1 34q0 62 11 126q7 43 18 81.5t36 78.5q20 32 50 58.5t71 34.5q8 2 15.5 3t15.5 1
q26 0 48.5 -10t38.5 -31q12 -14 19 -32t14 -35q10 -27 15.5 -53.5t9.5 -54.5zM255 315q1 15 0.5 38t-4 47.5t-10 47t-16.5 34.5q-11 13 -19.5 5.5t-14.5 -19.5q-18 -36 -25 -75t-11 -78q-1 -9 -1.5 -18.5t-0.5 -19.5q0 -29 5 -57t18 -54q4 -8 11.5 -18t16.5 -13q8 -2 15 7
t12 22.5t8.5 27.5t4.5 20q10 52 11 103z" />
    <glyph glyph-name="zero" unicode="0" horiz-adv-x="404" 
d="M381 426q3 -32 3.5 -64t0.5 -68q0 -98 -43 -198q-15 -33 -39.5 -57.5t-56.5 -44.5q-21 -13 -51.5 -19.5t-59.5 1.5q-30 9 -49.5 32.5t-32.5 54.5t-19.5 64.5t-10.5 62.5q-2 18 -3 35t-1 34q0 62 11 126q7 43 18 81.5t36 78.5q20 32 50 58.5t71 34.5q8 2 15.5 3t15.5 1
q26 0 48.5 -10t38.5 -31q12 -14 19 -32t14 -35q10 -27 15.5 -53.5t9.5 -54.5zM255 315q1 15 0.5 38t-4 47.5t-10 47t-16.5 34.5q-11 13 -19.5 5.5t-14.5 -19.5q-18 -36 -25 -75t-11 -78q-1 -9 -1.5 -18.5t-0.5 -19.5q0 -29 5 -57t18 -54q4 -8 11.5 -18t16.5 -13q8 -2 15 7
t12 22.5t8.5 27.5t4.5 20q10 52 11 103z" />
    <glyph glyph-name="P" unicode="P" horiz-adv-x="404" 
d="M300 642q50 -12 72 -49t22 -81q0 -33 -10.5 -66.5t-29.5 -60.5q-15 -20 -32 -41q-40 -52 -99 -109q-11 -11 -23.5 -25.5t-21.5 -26.5q-10 -13 -11.5 -24t-0.5 -25q2 -31 5 -61t0 -62q-2 -23 -18 -34.5t-36 -11.5q-22 0 -41 14q-17 13 -23 32t-10 39q-2 15 -3 31t-2 36
t-1 46v61q2 22 0.5 37t0.5 37q2 26 -0.5 54t-7.5 57q-2 20 -5.5 38.5t-3.5 41.5q0 18 3.5 36.5t14.5 33.5q6 9 15 17t19 14q31 17 63 30.5t72 22.5q21 6 44.5 5.5t47.5 -6.5zM243 455q4 7 7.5 17.5t4.5 20t-1.5 18t-9.5 13.5q-7 4 -17.5 3.5t-21 -4t-19 -10.5t-12.5 -15
q-8 -17 -7 -30t-1 -30q-1 -16 -1.5 -34t1.5 -34q2 -12 9.5 -8.5t15.5 11.5q18 18 29.5 39.5t22.5 42.5z" />
    <glyph glyph-name="Q" unicode="Q" horiz-adv-x="459" 
d="M451 119q15 -20 20.5 -40t-3.5 -43q-4 -11 -11 -20.5t-16 -15.5t-20 -6.5t-24 7.5q-12 8 -21.5 21t-19.5 24q-8 9 -13 11t-9 0.5t-8.5 -6t-10.5 -8.5q-22 -24 -46.5 -39t-55.5 -26q-14 -5 -32 -6.5t-38 4.5q-30 9 -49.5 32.5t-32.5 54.5t-20 64.5t-11 62.5q-2 17 -3 33.5
t-1 32.5q0 34 3.5 65.5t8.5 63.5q7 44 18 81.5t36 78.5q20 32 49.5 58.5t71.5 35.5q30 7 63.5 -1.5t54.5 -35.5q12 -15 19 -33t14 -35q10 -27 15.5 -53.5t8.5 -54.5q4 -33 4.5 -66.5t0.5 -65.5q0 -18 -2 -35.5t-4 -34.5q0 -19 12 -38q12 -18 25.5 -34t26.5 -33zM184 166
q4 -8 11.5 -18t16.5 -12q12 -4 16.5 6.5t6.5 18.5q0 14 -8 21.5t-15 17.5q-14 19 -6 38.5t26 33.5q9 7 16 10t12 14q1 2 2 6t1 13q2 29 -2 58.5t-9 58.5q-2 14 -6 26.5t-13 23.5q-11 13 -19.5 5.5t-14.5 -19.5q-18 -36 -25 -75t-11 -78q-1 -9 -1.5 -18.5t-0.5 -19.5
q0 -29 5 -57t18 -54z" />
    <glyph glyph-name="R" unicode="R" horiz-adv-x="423" 
d="M403 172q10 -16 14 -35t-2 -36q-3 -8 -7.5 -17.5t-12 -17.5t-17.5 -12t-23 -1q-16 4 -29.5 17.5t-25.5 23.5q-14 11 -28 23t-31 21q-3 2 -12 7.5t-19.5 10.5t-19.5 8t-13 0q-11 -8 -11.5 -21t0.5 -27q1 -15 2.5 -27.5t2.5 -24.5t1 -24.5t-1 -28.5q-2 -23 -18 -34.5
t-36 -11.5q-21 0 -41 14q-12 9 -19 23.5t-10.5 30.5t-5 32.5t-2.5 31.5q-2 30 -2.5 62t1.5 65q3 45 0.5 90.5t-7.5 94.5q-3 20 -6 40.5t-3 43.5q0 18 3.5 35.5t13.5 31.5q18 22 43 34.5t52 24.5q36 18 79.5 26t85.5 -3q50 -12 72 -49t22 -81q0 -33 -10.5 -66.5t-29.5 -60.5
q-7 -11 -15 -21l-16 -20q-7 -8 -14 -17t-15 -17q-6 -11 -3 -19t17 -19q12 -11 23 -21t23 -21q14 -14 27 -28t23 -30zM166 438q-1 -16 -1.5 -33.5t1.5 -33.5q2 -13 9.5 -9.5t15.5 11.5q18 18 29.5 39.5t22.5 42.5q4 7 7.5 17.5t4.5 20t-1.5 18t-9.5 13.5q-7 4 -17 3.5
t-20.5 -4t-19.5 -10.5t-13 -15q-8 -17 -7 -30t-1 -30z" />
    <glyph glyph-name="S" unicode="S" 
d="M405 149q-2 -61 -44.5 -110t-127.5 -70q-25 -7 -52 -7q-36 0 -64.5 12.5t-49.5 32.5t-33 46t-13 53q-1 9 -1.5 19t-0.5 20q1 38 27 62q11 10 25.5 15.5t27.5 5.5q17 0 29 -10t13 -31q0 -23 6 -37t23 -32q4 -5 12 -7t16 -2.5t15 1t10 3.5q22 14 20 32t-15.5 36t-31.5 33
t-27 23q-22 20 -48.5 43.5t-48.5 42.5q-25 21 -41.5 42t-17.5 52q-1 18 3.5 37.5t13 38.5t20 36.5t25.5 31.5q30 32 75 56.5t92 32.5q12 2 27.5 1.5t30.5 -4.5t27.5 -10.5t20.5 -16.5q10 -14 18 -33.5t-2 -55.5q-6 -21 -8.5 -33.5t-4 -22.5t-3.5 -19.5t-6 -24.5
q-2 -12 -19 -22t-31 -11q-24 1 -42.5 8.5t-25.5 28.5q-4 11 -3.5 21.5t2.5 21.5q2 14 -2 21t-20 1q-40 -16 -42 -51q-1 -14 7.5 -30t28.5 -31q16 -13 28.5 -22.5t24 -18.5t23 -18.5t25.5 -21.5q26 -22 47 -42t32 -36q21 -32 25.5 -48t4.5 -32z" />
    <glyph glyph-name="T" unicode="T" horiz-adv-x="373" 
d="M346 532q-17 -9 -33 -9.5t-33 -8.5q-10 -5 -14.5 -10t-6.5 -11t-2 -14.5t-1 -20.5q-4 -46 -5 -91.5t-1 -91.5v-70q1 -24 1 -52.5t2 -52.5q1 -18 1.5 -37.5t0.5 -36.5q-1 -20 -7 -34.5t-26 -18.5q-46 -9 -74 25q-17 20 -24 55t-7 83q0 14 0.5 28.5t1.5 30.5q2 23 2 49.5
v54.5v93v19.5t-1 24t-4.5 19t-10.5 6.5q-19 -3 -39 -7.5t-36 3.5q-13 6 -18 23.5t-5 31.5q0 16 5.5 30t14.5 19q18 9 42 17t41 14t33.5 12.5t33.5 12.5q25 8 52 16t54 9q21 2 43 -5t35 -24q15 -15 15 -36q0 -14 -8 -25.5t-22 -19.5z" />
    <glyph glyph-name="U" unicode="U" horiz-adv-x="420" 
d="M25 225q0 32 -0.5 65.5t2.5 75.5q4 43 5.5 85.5t14.5 85.5q10 23 34.5 39t55.5 12q20 -3 29 -16t7 -30q-1 -23 -1.5 -46t-2.5 -47q-3 -39 -5.5 -81.5t-2.5 -106.5v-25t1.5 -40.5t4.5 -40t9 -22.5q6 -5 16.5 -2.5t16.5 4.5q14 5 23 15t14 24q9 28 10.5 60t1.5 82v79v69
t1 70q1 23 0.5 44t10.5 39t33.5 24.5t44.5 4.5q23 -1 30.5 -14.5t12.5 -30.5q5 -20 7 -43t2 -47q0 -48 -4.5 -97t-4.5 -91q0 -53 -2 -105t-15 -103q-5 -20 -13 -38t-23 -33q-16 -17 -43.5 -28.5t-48.5 -22.5q-22 -11 -49 -18.5t-53 -7.5q-29 0 -56.5 11.5t-41.5 40.5
q-11 22 -14.5 42t-3.5 43q0 17 -0.5 31t-1.5 28t-1 29v33z" />
    <glyph glyph-name="V" unicode="V" horiz-adv-x="390" 
d="M54 221q-11 67 -22.5 133t-20.5 133q-2 15 0.5 30.5t12.5 28.5q14 19 41.5 28t50.5 0q8 -4 13 -11t7.5 -15.5t3.5 -17.5t2 -16q3 -30 7.5 -56.5t7.5 -63.5q1 -16 2 -26.5t3 -33.5q1 -13 2.5 -26t2.5 -25q1 -7 2 -16t3 -16.5t5 -13t9 -5.5q12 -2 16.5 9.5t7.5 22.5
q5 19 9 37.5t7 38.5q7 41 11 82.5t2 84.5q0 8 -0.5 17t-0.5 17q0 25 7.5 47t35.5 36q32 18 67 7q23 -8 27.5 -28.5t4.5 -44.5q0 -17 -2 -34.5t-4 -34.5q-5 -45 -12 -87.5t-19 -90.5q-18 -79 -45 -155q-9 -26 -21 -50t-23 -50q-6 -14 -14.5 -28t-19.5 -25t-26.5 -18t-34.5 -6
q-38 1 -62 22t-26 54q-2 42 -6 83t-11 83z" />
    <glyph glyph-name="W" unicode="W" horiz-adv-x="533" 
d="M20 472q0 34 0.5 48.5t3.5 25.5q8 32 36.5 41.5t59.5 3.5q17 -3 24.5 -18t10.5 -33.5t2.5 -37.5t1.5 -30q1 -9 1.5 -29.5t1 -46t1.5 -53t3.5 -49.5t6 -36.5t9.5 -13.5q4 0 7 4.5t5 10t3.5 11t1.5 8.5q3 38 3 74.5v71.5q0 16 1 32.5t5.5 31t13.5 26t25 17.5q11 5 27 7
t26 -6q8 -6 13.5 -21.5t9.5 -33.5t6 -34.5t3 -25.5q2 -17 2.5 -33t2.5 -32q0 -3 1.5 -16t4.5 -25.5t7.5 -20t10.5 -0.5q4 5 7.5 14t6 18.5t4 19t1.5 15.5q1 23 2.5 46t0.5 46q-2 26 -3.5 52t-5.5 51q-2 17 -3 32t5 29q7 17 22 24.5t32 7.5q26 0 44 -15q25 -21 34 -54.5
t9 -62.5q-1 -52 -2 -105t-6 -105q-1 -9 -2.5 -21.5t-3 -26.5t-3.5 -27.5t-3 -23.5q-2 -19 -4.5 -33t-5.5 -27t-6 -27t-6 -32q-3 -14 -10 -31t-17 -28t-28 -22t-35 -11q-18 -1 -29.5 4.5t-19.5 19.5q-7 11 -11 24t-8.5 25.5t-10 24.5t-15.5 22q-12 11 -22 6t-18 -17
t-14.5 -26t-10.5 -20q-8 -14 -16.5 -30t-19 -29.5t-24.5 -22t-33 -6.5q-17 2 -34 12.5t-26 23.5q-14 22 -16 51t-3 54q-1 20 -1.5 38.5t-2.5 37.5q-10 71 -20 143t-10 144z" />
    <glyph glyph-name="X" unicode="X" horiz-adv-x="389" 
d="M341 477q-23 -36 -42 -74q-11 -19 -20.5 -39.5t-17.5 -40.5q-4 -10 -7.5 -19.5t-3.5 -20.5q0 -15 6 -30.5t15 -30.5t19 -28.5t18 -25.5q9 -13 19.5 -28t19 -31.5t11.5 -33.5t-3 -33q-7 -18 -22.5 -28t-33.5 -10q-17 0 -32 9q-11 8 -21 22t-18 25q-8 12 -14 25l-12 26
l-5 10t-7 11t-8.5 7t-9.5 -2q-8 -7 -12.5 -23.5t-7.5 -26.5q-4 -15 -8 -31t-10 -31t-15.5 -28t-24.5 -20q-14 -7 -28 -4t-24.5 12t-17.5 22t-8 27q-1 18 2.5 35t8.5 34q8 22 15 43.5t17 42.5q7 16 15.5 31.5t14.5 32t8 33.5t-3 35q-5 14 -11.5 26.5t-12.5 26.5
q-8 17 -14.5 34.5t-14.5 34.5q-7 16 -10.5 31.5t-3.5 32.5t8.5 29t21.5 23q20 19 45 19q15 0 28.5 -9t21.5 -27q7 -15 10 -27t8 -28q7 -20 16.5 -18.5t17.5 13.5q14 23 27.5 47.5t24.5 49.5q5 10 11.5 21.5t15.5 20.5t19.5 14.5t24.5 4.5q12 -1 24 -6.5t22 -13.5t16 -19.5
t6 -24.5q0 -16 -7 -27t-15 -24l-16 -24z" />
    <glyph glyph-name="Y" unicode="Y" horiz-adv-x="415" 
d="M361 457q-17 -27 -32.5 -61t-28.5 -63t-23 -58.5t-22 -59.5q-15 -39 -24 -79.5t-17 -75.5t-18.5 -60t-28.5 -31q-11 -4 -29.5 -3.5t-35.5 15.5q-14 12 -17 27t-4 35q0 31 12 62.5t19 66.5q1 8 1.5 19t-0.5 22.5t-3.5 22t-5.5 17.5q-15 32 -25 60t-24 63q-15 36 -29 75.5
t-20 78.5q-3 19 2.5 36t17 29t28 19t36.5 6q17 -1 28 -7.5t15 -23.5q3 -16 5.5 -36t4.5 -37q1 -13 5 -34.5t10 -40.5t14.5 -30t18.5 -3q8 6 16.5 22t16.5 35.5t14.5 38.5t10.5 30q6 15 12.5 32t15.5 33t21 28.5t29 17.5q15 5 31 3t29.5 -9.5t22.5 -21t9 -31.5
q0 -36 -19.5 -67.5t-38.5 -61.5z" />
    <glyph glyph-name="Z" unicode="Z" horiz-adv-x="395" 
d="M387 594q1 -17 -8.5 -33.5t-18.5 -30.5q-12 -19 -24 -37t-23 -37q-13 -21 -23.5 -38.5t-19.5 -35t-18.5 -36t-21.5 -42.5q-8 -18 -18 -41t-15 -42q-1 -5 -4 -14.5t-5 -19t-2 -18.5t5 -13q4 -3 11.5 -2t16 4.5t16.5 7.5l12 6q20 10 37.5 10.5t34.5 -4.5q21 -7 39 -29.5
t18 -46.5q0 -19 -11 -31q-6 -7 -14.5 -11t-18 -6.5t-19 -4.5t-17.5 -5q-19 -8 -37 -17t-36 -19t-36 -19t-35 -20q-34 -18 -65 -5q-19 7 -29.5 21.5t-16 32t-6 36t0.5 35.5q3 46 11 88t21.5 81.5t32.5 77.5t43 78q3 5 12.5 18.5t15.5 25.5t3.5 18t-24.5 -3q-15 -6 -33 -12.5
t-32 -12.5q-17 -8 -30 -8t-26 14q-8 8 -11 21t-3 27t3 25.5t8 18.5q12 14 26.5 23t30 15.5t31 11t29.5 9.5q19 7 37 16t37 17q16 7 39.5 12.5t47.5 5.5q19 0 36 -5t30 -16q8 -8 11.5 -19t4.5 -22z" />
    <glyph glyph-name="underscore" unicode="_" horiz-adv-x="430" 
d="M349 55q-14 -3 -50 -15t-77 -25.5t-77 -25.5t-50 -17q-11 -4 -21 -6t-20 0q-12 2 -21.5 9t-14.5 24q-5 19 0.5 35t17.5 28.5t28.5 22.5t31.5 17q7 3 27 10.5t47 17t57.5 19.5t58.5 18t50 12.5t32 3.5q15 -2 26.5 -9t17.5 -21q4 -9 4 -21t-3 -23.5t-9 -21.5t-14 -16
q-8 -7 -19 -10z" />
    <glyph glyph-name="bullet" unicode="&#x2022;" horiz-adv-x="350" 
d="M249 184q-25 -23 -54 -33t-60 -5q-61 11 -84 67q-14 33 -14 69t15 69q7 16 20 34.5t30 32.5t34 21q11 5 27 9.5t27 5.5q10 1 21 0.5t20 -3.5q17 -7 33 -18.5t27 -28.5q14 -21 16 -49.5t0 -54.5q-4 -33 -19.5 -64t-38.5 -52z" />
    <glyph glyph-name="questiondown" unicode="&#xbf;" horiz-adv-x="440" 
d="M249 531q-5 11 -6.5 25t2.5 26q7 17 23.5 30t34.5 15q10 1 18.5 -2t16.5 -8q18 -10 35 -25q10 -11 10 -27q0 -14 -6.5 -26.5t-17.5 -20.5q-10 -8 -20.5 -13t-24.5 -5q-19 1 -38 7.5t-27 23.5zM39 53q5 -20 18 -33t29.5 -20.5t35 -11t34.5 -3.5q42 0 82 11t75 28
q27 14 50 29.5t40 41.5q5 9 11 23.5t6 23.5q2 19 -3 37.5t-19 29.5q-9 7 -24 6.5t-30 -6t-26 -15t-12 -20.5q-2 -15 -12 -28t-25.5 -22t-33.5 -13.5t-35 -2.5q-15 2 -24.5 12.5t-2.5 26.5q5 13 21.5 25.5t27.5 20.5q28 20 54 39t49 43q10 11 21 25t19.5 29.5t13 32t1.5 31.5
q-5 26 -22.5 39.5t-39.5 13.5q-31 0 -56 -26q-9 -10 -9.5 -22t-2.5 -28q-2 -14 -17.5 -31.5t-26.5 -26.5q-31 -26 -64 -47t-62 -52q-15 -15 -25 -35t-15.5 -41.5t-5.5 -43t5 -40.5z" />
    <glyph glyph-name="exclamdown" unicode="&#xa1;" horiz-adv-x="293" 
d="M145 531q-2 11 -3 21t3 21t11 17.5t16 13.5t20 11l22 8q9 2 18 2.5t18 -3.5q15 -6 25 -22t11 -33q0 -17 -7.5 -34t-21.5 -26q-7 -4 -14.5 -6t-15.5 -4q-11 -2 -21 -2h-21t-19 4t-13.5 13.5t-7.5 18.5zM28 46q3 -17 20 -33.5t35 -20.5q24 -6 43.5 3.5t33.5 26t24 36.5
t16 37q20 61 33 126t12 130q0 10 -1.5 28t-7 33.5t-16.5 24.5t-31 2q-12 -5 -20.5 -14t-13.5 -20q-13 -23 -21 -49t-14 -52l-15 -54q-19 -64 -45 -121q-4 -9 -10.5 -19.5t-11.5 -21t-8.5 -21t-1.5 -21.5z" />
    <glyph glyph-name="endash" unicode="&#x2013;" horiz-adv-x="558" 
d="M478 299q-27 -10 -51.5 -21.5t-50.5 -24.5q-20 -11 -40 -11q-12 0 -22.5 6.5t-16.5 22.5q-8 18 -4 34.5t14.5 30.5t25.5 25.5t29 20.5q10 6 24.5 14t31 15t33.5 12t32 5t27 -5.5t20 -19.5q5 -9 6.5 -20.5t-0.5 -23.5t-7 -22.5t-12 -17.5q-8 -8 -18 -12t-21 -8zM206 263
q-27 -10 -51.5 -21.5t-50.5 -24.5q-20 -11 -40 -11q-12 0 -22.5 6.5t-16.5 22.5q-8 18 -4 34.5t14.5 30.5t25.5 25.5t29 20.5q10 6 24.5 14t31 15t33.5 12t32 5t27 -5.5t20 -19.5q5 -9 6.5 -20.5t-0.5 -23.5t-7 -22.5t-12 -17.5q-8 -8 -18 -12t-21 -8z" />
    <glyph glyph-name="emdash" unicode="&#x2014;" horiz-adv-x="562" 
d="M478 299q-27 -10 -51.5 -21.5t-50.5 -24.5q-20 -11 -40 -11q-12 0 -22.5 6.5t-16.5 22.5q-8 18 -4 34.5t14.5 30.5t25.5 25.5t29 20.5q10 6 24.5 14t31 15t33.5 12t32 5t27 -5.5t20 -19.5q5 -9 6.5 -20.5t-0.5 -23.5t-7 -22.5t-12 -17.5q-8 -8 -18 -12t-21 -8zM206 263
q-27 -10 -51.5 -21.5t-50.5 -24.5q-20 -11 -40 -11q-12 0 -22.5 6.5t-16.5 22.5q-8 18 -4 34.5t14.5 30.5t25.5 25.5t29 20.5q10 6 24.5 14t31 15t33.5 12t32 5t27 -5.5t20 -19.5q5 -9 6.5 -20.5t-0.5 -23.5t-7 -22.5t-12 -17.5q-8 -8 -18 -12t-21 -8z" />
    <glyph glyph-name="quoteleft" unicode="&#x2018;" horiz-adv-x="214" 
d="M44 453q-10 20 -10 44q0 29 10.5 62.5t30.5 56.5q13 18 33 28q16 8 31 7t29 -15q11 -11 13 -25t-1 -29q-2 -7 -4 -13t-4 -13t-2.5 -14t-1.5 -14q-2 -14 -1.5 -28.5t-1.5 -28.5q-2 -10 -8.5 -22t-14.5 -17q-22 -10 -44 -10q-17 0 -31.5 7t-22.5 24z" />
    <glyph glyph-name="quoteright" unicode="&#x2019;" horiz-adv-x="223" 
d="M179 633q11 -11 13 -32t0 -35q-3 -32 -16 -59q-5 -11 -12.5 -25t-16.5 -27t-20.5 -22t-23.5 -11q-14 -2 -26.5 2.5t-21.5 13.5t-13 21.5t-2 26.5q2 18 8.5 34.5t8.5 35.5q1 10 0 19.5t-1 19.5q1 30 22.5 44t47.5 12q11 -1 28 -5.5t25 -12.5z" />
    <glyph glyph-name="colon" unicode=":" horiz-adv-x="207" 
d="M109 261q19 -2 35 -8t24 -28q3 -8 6 -17.5t2 -17.5q-1 -9 -8.5 -17.5t-13.5 -13.5q-22 -18 -41 -22t-45 10q-11 5 -21.5 12.5t-14.5 21.5q-3 12 -0.5 25t8.5 23q7 13 18 22t25 11q7 1 13.5 0.5t12.5 -1.5zM166 415q5 -12 7 -26t-3 -26q-6 -17 -23 -30t-35 -15
q-10 -1 -18.5 2t-16.5 8q-10 6 -18 12t-16 14q-11 11 -11 27q0 14 7 26.5t17 20.5t21 13t24 4q30 0 52 -15q8 -6 13 -15z" />
    <glyph glyph-name="semicolon" unicode=";" horiz-adv-x="219" 
d="M119 282q19 -2 35 -8t24 -28q3 -8 6 -17.5t2 -17.5q-1 -9 -8.5 -17.5t-13.5 -13.5q-22 -18 -41 -22t-45 10q-11 5 -21.5 12.5t-14.5 21.5q-3 12 -0.5 25t8.5 23q7 13 18 22t25 11q7 1 13.5 0.5t12.5 -1.5zM118 113q11 -1 27.5 -5t25.5 -12q11 -10 13 -30t0 -34
q-3 -32 -16 -56q-5 -11 -12.5 -24.5t-17 -25.5t-20.5 -21t-24 -11q-14 -2 -26 2.5t-21 13t-13.5 20t-2.5 25.5q3 17 9.5 33.5t8.5 33.5q1 9 0 18.5t-1 18.5q0 29 22 42.5t48 11.5z" />
    <glyph glyph-name="four" unicode="4" horiz-adv-x="418" 
d="M407 292q-4 -16 -13.5 -23t-22.5 -13q-20 -14 -24 -30t-2 -36q2 -15 5 -30.5t5 -31.5q2 -17 4.5 -35t2.5 -35q0 -16 -3.5 -30.5t-12.5 -28.5q-14 -20 -36 -20q-15 0 -29.5 7.5t-25.5 18.5q-24 23 -27.5 57t-4.5 68q-1 12 1.5 29t-7.5 27q-8 9 -22.5 4t-24.5 -9
q-16 -7 -25 -11.5t-26 -12.5l-22 -10t-25 -4q-19 1 -28.5 10t-13.5 22.5t-3.5 28.5t1.5 29q1 13 1 25.5v24.5v24t-1 25q-1 27 -1 53v53q0 22 1 44.5t7 43.5q7 23 19.5 33t32.5 18q8 2 17 4.5t18 2.5q10 0 19 -3.5t15 -11.5q5 -7 7 -17.5t2 -21.5t-1 -22t-1 -19
q-2 -25 -4 -49l-4 -48q0 -7 -1 -15.5t-0.5 -17t3.5 -14.5t11 -8q11 -3 23.5 5t17.5 19q6 12 7.5 28.5t2.5 30.5q2 45 5 92t20 89q7 17 23.5 25.5t36.5 8.5q19 0 35.5 -7.5t24.5 -22.5q5 -8 7 -18t2 -21q0 -40 -8.5 -78t-12.5 -75q-1 -13 3.5 -18.5t16.5 -5.5q13 0 21.5 -11
t12.5 -27t4 -32.5t-3 -26.5z" />
    <glyph glyph-name="one" unicode="1" horiz-adv-x="304" 
d="M247 295q-2 -45 7 -90t11 -89q1 -14 1.5 -29t-1.5 -29q-2 -26 -22.5 -43.5t-43.5 -17.5q-26 0 -42 22q-17 24 -22 56t-5 65q0 27 1.5 53t0.5 49q-2 27 -0.5 54.5t3.5 54.5q1 12 1.5 22t-2.5 16.5t-10 8.5t-21 -1q-15 -3 -33.5 -10t-32.5 2q-8 6 -14.5 15.5t-10 20.5
t-5 22.5t0.5 20.5q4 23 17.5 37t30.5 23.5t36 17.5t34 20q19 16 45 33.5t53 17.5q18 0 32 -10q14 -9 19.5 -26.5t5.5 -39.5q0 -30 -6.5 -61.5t-9.5 -51.5q-5 -33 -10.5 -66t-7.5 -67z" />
    <glyph glyph-name="caron" unicode="&#x2c7;" horiz-adv-x="833" 
 />
    <glyph glyph-name="two" unicode="2" horiz-adv-x="379" 
d="M113 601q26 17 61.5 30.5t70.5 13.5q25 0 46 -9q38 -17 53 -45t15 -62q0 -27 -7.5 -55t-19 -54t-26 -49.5t-28.5 -39.5q-25 -30 -45 -60.5t-37 -67.5q-3 -8 -7.5 -17.5t-6 -17.5t2.5 -12t18 0q19 5 38 12t38 12t35.5 0.5t29 -16t19 -28.5t6.5 -35q-1 -21 -13.5 -28.5
t-29.5 -13.5q-19 -7 -38.5 -13.5t-38.5 -14.5q-17 -8 -35 -18t-36.5 -20t-38 -17t-38.5 -7q-19 -1 -37 13t-26 31q-5 11 -6.5 23t-1.5 25q0 11 1 21.5t3 20.5q7 44 22 84.5t35 80.5q21 40 48.5 72.5t51.5 69.5q9 14 17 33t5 35q-3 22 -22 22q-15 0 -29 -14
q-7 -6 -10.5 -13.5t-6 -15l-5 -15t-6.5 -14.5q-10 -14 -29 -22.5t-36 -9.5t-26.5 7.5t-16.5 16.5q-12 21 -6 48t21.5 53.5t35.5 48t36 31.5z" />
    <glyph glyph-name="three" unicode="3" horiz-adv-x="428" 
d="M146 616q19 7 39 11t43 6q20 2 38.5 0t35.5 -11q15 -8 22 -18t15 -24q8 -15 10.5 -36t2.5 -38q0 -19 -3.5 -40.5t-10.5 -38.5q-6 -14 -13.5 -27.5t-12.5 -27.5q-6 -19 0 -25t23 -13q15 -7 27 -15.5t22 -22.5q16 -23 21 -51.5t5 -56.5q0 -32 -14.5 -61t-37 -53
t-50.5 -42.5t-55 -28.5q-15 -6 -28.5 -11t-27.5 -8t-29.5 -4t-34.5 1t-38 8t-33 19q-10 9 -15.5 23.5t-5.5 29.5q0 13 4.5 24t15.5 19q9 7 18 9t17 2q13 0 26 -2t28 1q32 6 58 14t49 33q11 12 11.5 26.5t-4.5 29.5q-5 16 -18.5 20.5t-29.5 0.5q-17 -4 -38 -14.5t-41 -10.5
q-19 0 -31 16q-8 11 -11.5 23t-3.5 24q0 20 8.5 37t23.5 26q40 22 58.5 44t27.5 55q5 15 1 27t-21 15q-14 3 -27.5 -5.5t-20.5 -20.5q-8 -11 -12 -18.5t-15 -15.5q-11 -10 -30 -10q-15 0 -28 8q-20 11 -28 30.5t-6 42.5q2 25 17.5 44.5t29.5 33.5q17 17 37 28t40 19z" />
    </font>
</defs>
</svg>
